<?xml version="1.0" encoding="UTF-8" standalone="no"?>
<svg
   xmlns:dc="http://purl.org/dc/elements/1.1/"
   xmlns:cc="http://creativecommons.org/ns#"
   xmlns:rdf="http://www.w3.org/1999/02/22-rdf-syntax-ns#"
   xmlns:svg="http://www.w3.org/2000/svg"
   xmlns="http://www.w3.org/2000/svg"
   xmlns:sodipodi="http://sodipodi.sourceforge.net/DTD/sodipodi-0.dtd"
   xmlns:inkscape="http://www.inkscape.org/namespaces/inkscape"
   sodipodi:docname="IZW-logo.svg"
   inkscape:version="1.0rc1 (09960d6, 2020-04-09)"
   id="svg1564"
   version="1.1"
   viewBox="0 0 74 52"
   height="52mm"
   width="74mm">
  <defs
     id="defs1558" />
  <sodipodi:namedview
     inkscape:window-maximized="0"
     inkscape:window-y="23"
     inkscape:window-x="0"
     inkscape:window-height="888"
     inkscape:window-width="1637"
     height="209mm"
     inkscape:pagecheckerboard="false"
     showgrid="false"
     inkscape:document-rotation="0"
     inkscape:current-layer="layer1"
     inkscape:document-units="mm"
     inkscape:cy="137.55531"
     inkscape:cx="216.74995"
     inkscape:zoom="1.5124719"
     inkscape:pageshadow="2"
     inkscape:pageopacity="0"
     borderopacity="1.0"
     bordercolor="#666666"
     pagecolor="#ffffff"
     id="base" />
  <metadata
     id="metadata1561">
    <rdf:RDF>
      <cc:Work
         rdf:about="">
        <dc:format>image/svg+xml</dc:format>
        <dc:type
           rdf:resource="http://purl.org/dc/dcmitype/StillImage" />
        <dc:title></dc:title>
      </cc:Work>
    </rdf:RDF>
  </metadata>
  <g
     id="layer1"
     inkscape:groupmode="layer"
     inkscape:label="Layer 1">
    <g
       transform="matrix(1.1004051,0,0,-1.1004051,3.0409846,39.250328)"
       id="g190">
      <path
         inkscape:connector-curvature="0"
         id="path192"
         style="fill:#f35d19;fill-opacity:1;fill-rule:evenodd;stroke:none"
         d="M 0,0 C 0.231,0.179 0.407,0.296 0.526,0.352 0.646,0.409 0.742,0.434 0.815,0.429 0.922,0.434 1.009,0.408 1.075,0.352 1.14,0.295 1.174,0.182 1.176,0.013 V -0.193 C 0.728,-0.268 0.382,-0.365 0.138,-0.482 c -0.244,-0.117 -0.413,-0.25 -0.507,-0.398 -0.094,-0.149 -0.138,-0.307 -0.134,-0.476 0.004,-0.283 0.091,-0.505 0.26,-0.666 0.168,-0.162 0.394,-0.244 0.678,-0.247 0.15,0.001 0.294,0.038 0.43,0.11 0.136,0.072 0.26,0.174 0.373,0.306 0.03,-0.132 0.094,-0.234 0.191,-0.306 0.097,-0.072 0.214,-0.109 0.349,-0.11 0.07,-0.004 0.155,0.012 0.257,0.046 0.102,0.033 0.234,0.102 0.396,0.208 l -0.18,0.379 C 2.187,-1.667 2.138,-1.688 2.104,-1.7 2.07,-1.712 2.044,-1.717 2.027,-1.717 c -0.043,0.002 -0.08,0.03 -0.114,0.084 -0.034,0.055 -0.052,0.126 -0.054,0.215 0,0.064 0.002,0.128 0.004,0.191 0.002,0.063 0.005,0.13 0.009,0.201 l 0.024,0.902 c 0.003,0.039 0.005,0.079 0.006,0.119 0.001,0.04 0.001,0.087 0.001,0.142 C 1.894,0.441 1.804,0.667 1.63,0.816 1.456,0.964 1.249,1.039 1.008,1.038 0.847,1.047 0.662,1.011 0.454,0.931 0.246,0.851 -0.025,0.676 -0.36,0.405 Z M 1.157,-1.406 C 1.066,-1.502 0.972,-1.575 0.877,-1.624 0.782,-1.673 0.695,-1.698 0.616,-1.698 0.496,-1.697 0.4,-1.665 0.328,-1.601 c -0.072,0.064 -0.109,0.154 -0.111,0.27 -0.005,0.156 0.064,0.284 0.206,0.385 0.142,0.1 0.391,0.19 0.747,0.268 z" />
    </g>
    <g
       transform="matrix(1.1004051,0,0,-1.1004051,6.3770784,41.651846)"
       id="g194">
      <path
         inkscape:connector-curvature="0"
         id="path196"
         style="fill:#f35d19;fill-opacity:1;fill-rule:evenodd;stroke:none"
         d="M 0,0 H 0.76 L 0.772,2.127 C 0.871,2.226 0.98,2.317 1.101,2.402 1.222,2.486 1.343,2.532 1.463,2.537 1.619,2.54 1.727,2.5 1.788,2.42 1.848,2.341 1.877,2.205 1.874,2.015 1.874,1.831 1.873,1.639 1.87,1.441 1.868,1.243 1.865,1.024 1.862,0.784 L 1.855,0 h 0.758 l 0.019,1.573 c 0,0.097 10e-4,0.2 0.003,0.309 0.002,0.11 0.003,0.241 0.003,0.394 C 2.645,2.527 2.588,2.745 2.469,2.93 2.35,3.114 2.128,3.211 1.806,3.22 1.596,3.218 1.405,3.175 1.233,3.09 1.061,3.005 0.913,2.894 0.791,2.754 H 0.778 V 3.133 H 0.031 Z" />
    </g>
    <g
       transform="matrix(1.1004051,0,0,-1.1004051,12.538135,41.651846)"
       id="g198">
      <path
         inkscape:connector-curvature="0"
         id="path200"
         style="fill:#f35d19;fill-opacity:1;fill-rule:evenodd;stroke:none"
         d="M 0,0 H 0.727 L 0.746,4.663 H -0.012 L -0.031,2.91 H -0.043 C -0.134,3.02 -0.242,3.098 -0.367,3.142 -0.492,3.188 -0.617,3.209 -0.742,3.208 -1.035,3.203 -1.283,3.12 -1.486,2.959 -1.688,2.798 -1.842,2.591 -1.947,2.336 -2.051,2.081 -2.104,1.81 -2.105,1.523 c 0.007,-0.475 0.13,-0.858 0.369,-1.149 0.24,-0.291 0.554,-0.44 0.944,-0.449 0.162,0.003 0.312,0.043 0.451,0.12 0.138,0.077 0.248,0.176 0.329,0.296 L 0,0.341 Z M -0.043,1.063 C -0.07,0.925 -0.138,0.81 -0.245,0.717 -0.353,0.624 -0.469,0.575 -0.592,0.571 c -0.223,0.005 -0.403,0.098 -0.541,0.278 -0.139,0.18 -0.21,0.417 -0.214,0.712 0.007,0.308 0.084,0.551 0.232,0.729 0.149,0.178 0.329,0.268 0.542,0.272 0.13,-0.004 0.24,-0.035 0.328,-0.094 0.088,-0.059 0.155,-0.123 0.202,-0.192 z" />
    </g>
    <g
       transform="matrix(1.1004051,0,0,-1.1004051,17.587344,41.651846)"
       id="g202">
      <path
         inkscape:connector-curvature="0"
         id="path204"
         style="fill:#f35d19;fill-opacity:1;fill-rule:evenodd;stroke:none"
         d="M 0,0 H 0.833 L 1.784,3.364 H 1.797 L 2.636,0 H 3.482 L 4.806,4.184 4.035,4.389 3.096,0.969 H 3.084 L 2.238,4.302 H 1.399 L 0.429,0.969 H 0.417 L -0.392,4.389 -1.187,4.19 Z" />
    </g>
    <g
       transform="matrix(1.1004051,0,0,-1.1004051,23.646504,41.651846)"
       id="g206">
      <path
         inkscape:connector-curvature="0"
         id="path208"
         style="fill:#f35d19;fill-opacity:1;fill-rule:evenodd;stroke:none"
         d="M 0,0 H 0.758 L 0.789,3.133 H 0.031 Z M 0.031,3.569 H 0.789 L 0.795,4.302 H 0.037 Z" />
    </g>
    <g
       transform="matrix(1.1004051,0,0,-1.1004051,25.790973,41.651846)"
       id="g210">
      <path
         inkscape:connector-curvature="0"
         id="path212"
         style="fill:#f35d19;fill-opacity:1;fill-rule:evenodd;stroke:none"
         d="M 0,0 H 0.758 L 0.795,4.663 H 0.037 Z" />
    </g>
    <g
       transform="matrix(1.1004051,0,0,-1.1004051,29.995068,41.651846)"
       id="g214">
      <path
         inkscape:connector-curvature="0"
         id="path216"
         style="fill:#f35d19;fill-opacity:1;fill-rule:evenodd;stroke:none"
         d="M 0,0 H 0.727 L 0.745,4.663 H -0.012 L -0.031,2.91 H -0.044 C -0.134,3.02 -0.242,3.098 -0.367,3.142 -0.492,3.188 -0.617,3.209 -0.742,3.208 -1.036,3.203 -1.283,3.12 -1.486,2.959 -1.688,2.798 -1.842,2.591 -1.947,2.336 -2.052,2.081 -2.104,1.81 -2.105,1.523 c 0.007,-0.475 0.13,-0.858 0.369,-1.149 0.239,-0.291 0.554,-0.44 0.944,-0.449 0.162,0.003 0.312,0.043 0.45,0.12 0.139,0.077 0.249,0.176 0.33,0.296 L 0,0.341 Z M -0.044,1.063 C -0.071,0.925 -0.138,0.81 -0.246,0.717 -0.353,0.624 -0.469,0.575 -0.592,0.571 c -0.223,0.005 -0.403,0.098 -0.541,0.278 -0.139,0.18 -0.21,0.417 -0.214,0.712 0.006,0.308 0.084,0.551 0.232,0.729 0.149,0.178 0.329,0.268 0.541,0.272 0.131,-0.004 0.24,-0.035 0.328,-0.094 0.088,-0.059 0.156,-0.123 0.202,-0.192 z" />
    </g>
    <g
       transform="matrix(1.1004051,0,0,-1.1004051,31.979545,41.651846)"
       id="g218">
      <path
         inkscape:connector-curvature="0"
         id="path220"
         style="fill:#f35d19;fill-opacity:1;fill-rule:evenodd;stroke:none"
         d="M 0,0 H 0.758 L 0.795,4.663 H 0.037 Z" />
    </g>
    <g
       transform="matrix(1.1004051,0,0,-1.1004051,34.130948,41.651846)"
       id="g222">
      <path
         inkscape:connector-curvature="0"
         id="path224"
         style="fill:#f35d19;fill-opacity:1;fill-rule:evenodd;stroke:none"
         d="M 0,0 H 0.757 L 0.789,3.133 H 0.031 Z M 0.031,3.569 H 0.789 L 0.795,4.302 H 0.037 Z" />
    </g>
    <g
       transform="matrix(1.1004051,0,0,-1.1004051,36.446421,41.651846)"
       id="g226">
      <path
         inkscape:connector-curvature="0"
         id="path228"
         style="fill:#f35d19;fill-opacity:1;fill-rule:evenodd;stroke:none"
         d="M 0,0 H 0.764 V 2.562 H 1.429 V 3.133 H 0.783 v 0.43 C 0.785,3.757 0.83,3.896 0.917,3.98 1.004,4.065 1.119,4.106 1.261,4.104 H 1.435 V 4.713 H 1.193 C 0.807,4.706 0.514,4.595 0.313,4.38 0.114,4.164 0.013,3.884 0.012,3.538 V 3.133 H -0.485 V 2.562 h 0.497 z" />
    </g>
    <g
       transform="matrix(1.1004051,0,0,-1.1004051,41.531392,40.030173)"
       id="g230">
      <path
         inkscape:connector-curvature="0"
         id="path232"
         style="fill:#f35d19;fill-opacity:1;fill-rule:evenodd;stroke:none"
         d="M 0,0 C 0.001,0.551 -0.104,0.979 -0.315,1.284 -0.527,1.588 -0.853,1.742 -1.293,1.746 -1.598,1.741 -1.857,1.659 -2.07,1.5 -2.282,1.34 -2.444,1.135 -2.555,0.883 -2.666,0.631 -2.722,0.363 -2.723,0.081 c 0.008,-0.499 0.136,-0.895 0.386,-1.19 0.249,-0.294 0.577,-0.445 0.982,-0.452 0.256,0.003 0.491,0.059 0.705,0.17 0.214,0.111 0.404,0.259 0.569,0.445 l -0.434,0.398 c -0.096,-0.106 -0.204,-0.2 -0.325,-0.279 -0.119,-0.08 -0.254,-0.121 -0.403,-0.125 -0.173,0.003 -0.313,0.054 -0.418,0.151 -0.106,0.097 -0.182,0.218 -0.23,0.363 -0.048,0.145 -0.073,0.291 -0.074,0.438 z m -1.928,0.534 c 0.019,0.164 0.086,0.317 0.201,0.456 0.115,0.14 0.26,0.214 0.434,0.223 0.197,-0.008 0.34,-0.079 0.429,-0.214 0.088,-0.134 0.136,-0.29 0.143,-0.465 z" />
    </g>
    <g
       transform="matrix(1.1004051,0,0,-1.1004051,44.606367,41.651846)"
       id="g234">
      <path
         inkscape:connector-curvature="0"
         id="path236"
         style="fill:#f35d19;fill-opacity:1;fill-rule:evenodd;stroke:none"
         d="M 0,0 H 0.814 L 0.82,1.723 H 1.068 C 1.127,1.723 1.18,1.711 1.227,1.687 1.274,1.664 1.317,1.626 1.354,1.573 L 2.546,-0.087 3.254,0.336 2.03,1.94 C 2.285,2.031 2.487,2.172 2.635,2.362 2.784,2.552 2.86,2.784 2.863,3.059 2.867,3.41 2.753,3.703 2.522,3.937 2.291,4.172 1.918,4.293 1.403,4.302 H 0.043 Z M 0.832,2.368 0.845,3.656 H 1.304 C 1.511,3.656 1.682,3.604 1.818,3.499 1.954,3.395 2.025,3.24 2.03,3.034 2.026,2.85 1.982,2.709 1.899,2.613 1.816,2.516 1.72,2.451 1.611,2.417 1.502,2.382 1.406,2.366 1.323,2.368 Z" />
    </g>
    <g
       transform="matrix(1.1004051,0,0,-1.1004051,51.745352,40.030173)"
       id="g238">
      <path
         inkscape:connector-curvature="0"
         id="path240"
         style="fill:#f35d19;fill-opacity:1;fill-rule:evenodd;stroke:none"
         d="M 0,0 C 0.001,0.551 -0.104,0.979 -0.316,1.284 -0.527,1.588 -0.853,1.742 -1.293,1.746 -1.598,1.741 -1.858,1.659 -2.07,1.5 -2.282,1.34 -2.444,1.135 -2.555,0.883 -2.666,0.631 -2.722,0.363 -2.723,0.081 c 0.008,-0.499 0.136,-0.895 0.386,-1.19 0.249,-0.294 0.576,-0.445 0.982,-0.452 0.255,0.003 0.491,0.059 0.705,0.17 0.214,0.111 0.404,0.259 0.569,0.445 l -0.435,0.398 c -0.095,-0.106 -0.203,-0.2 -0.324,-0.279 -0.12,-0.08 -0.254,-0.121 -0.403,-0.125 -0.173,0.003 -0.313,0.054 -0.418,0.151 -0.106,0.097 -0.182,0.218 -0.23,0.363 -0.048,0.145 -0.073,0.291 -0.074,0.438 z m -1.928,0.534 c 0.019,0.164 0.086,0.317 0.201,0.456 0.115,0.14 0.26,0.214 0.434,0.223 0.197,-0.008 0.34,-0.079 0.429,-0.214 0.088,-0.134 0.136,-0.29 0.143,-0.465 z" />
    </g>
    <g
       transform="matrix(1.1004051,0,0,-1.1004051,52.422541,41.419429)"
       id="g242">
      <path
         inkscape:connector-curvature="0"
         id="path244"
         style="fill:#f35d19;fill-opacity:1;fill-rule:evenodd;stroke:none"
         d="m 0,0 c 0.162,-0.097 0.335,-0.17 0.517,-0.221 0.181,-0.051 0.368,-0.077 0.558,-0.077 0.207,-0.001 0.399,0.036 0.577,0.11 0.179,0.073 0.323,0.184 0.434,0.333 0.11,0.147 0.167,0.334 0.17,0.557 C 2.249,0.98 2.171,1.183 2.022,1.311 1.874,1.439 1.702,1.531 1.507,1.586 1.312,1.642 1.14,1.7 0.992,1.76 0.844,1.82 0.766,1.922 0.758,2.065 0.764,2.192 0.818,2.286 0.919,2.347 1.02,2.408 1.128,2.438 1.243,2.438 1.362,2.436 1.483,2.411 1.607,2.365 1.731,2.318 1.84,2.259 1.933,2.189 L 2.256,2.668 C 2.112,2.785 1.946,2.872 1.756,2.927 1.566,2.982 1.378,3.01 1.193,3.009 0.879,3.009 0.61,2.928 0.387,2.767 0.164,2.606 0.047,2.363 0.037,2.039 0.045,1.733 0.121,1.513 0.266,1.379 0.41,1.246 0.578,1.154 0.768,1.104 0.958,1.055 1.126,1.002 1.27,0.947 1.415,0.892 1.491,0.79 1.499,0.64 1.495,0.513 1.451,0.42 1.367,0.361 1.283,0.302 1.182,0.272 1.063,0.273 0.92,0.275 0.784,0.301 0.655,0.35 0.525,0.399 0.4,0.461 0.28,0.534 Z" />
    </g>
    <g
       transform="matrix(1.1004051,0,0,-1.1004051,58.663262,40.030173)"
       id="g246">
      <path
         inkscape:connector-curvature="0"
         id="path248"
         style="fill:#f35d19;fill-opacity:1;fill-rule:evenodd;stroke:none"
         d="M 0,0 C 0.001,0.551 -0.104,0.979 -0.316,1.284 -0.527,1.588 -0.853,1.742 -1.293,1.746 -1.598,1.741 -1.857,1.659 -2.07,1.5 -2.283,1.34 -2.444,1.135 -2.555,0.883 -2.667,0.631 -2.722,0.363 -2.723,0.081 c 0.007,-0.499 0.136,-0.895 0.385,-1.19 0.25,-0.294 0.577,-0.445 0.983,-0.452 0.255,0.003 0.49,0.059 0.705,0.17 0.214,0.111 0.404,0.259 0.569,0.445 l -0.435,0.398 c -0.096,-0.106 -0.204,-0.2 -0.324,-0.279 -0.12,-0.08 -0.254,-0.121 -0.403,-0.125 -0.174,0.003 -0.313,0.054 -0.418,0.151 -0.106,0.097 -0.182,0.218 -0.231,0.363 -0.047,0.145 -0.072,0.291 -0.073,0.438 z m -1.928,0.534 c 0.019,0.164 0.086,0.317 0.201,0.456 0.115,0.14 0.26,0.214 0.434,0.223 0.197,-0.008 0.34,-0.079 0.428,-0.214 0.089,-0.134 0.137,-0.29 0.144,-0.465 z" />
    </g>
    <g
       transform="matrix(1.1004051,0,0,-1.1004051,59.832329,39.250328)"
       id="g250">
      <path
         inkscape:connector-curvature="0"
         id="path252"
         style="fill:#f35d19;fill-opacity:1;fill-rule:evenodd;stroke:none"
         d="M 0,0 C 0.231,0.179 0.406,0.296 0.526,0.352 0.646,0.409 0.742,0.434 0.815,0.429 0.923,0.434 1.009,0.408 1.075,0.352 1.14,0.295 1.174,0.182 1.176,0.013 V -0.193 C 0.728,-0.268 0.382,-0.365 0.138,-0.482 c -0.244,-0.117 -0.413,-0.25 -0.507,-0.398 -0.094,-0.149 -0.139,-0.307 -0.134,-0.476 0.004,-0.283 0.091,-0.505 0.259,-0.666 0.169,-0.162 0.395,-0.244 0.679,-0.247 0.15,0.001 0.294,0.038 0.43,0.11 0.136,0.072 0.26,0.174 0.373,0.306 0.03,-0.132 0.094,-0.234 0.191,-0.306 0.097,-0.072 0.213,-0.109 0.35,-0.11 0.069,-0.004 0.154,0.012 0.256,0.046 0.102,0.033 0.234,0.102 0.396,0.208 l -0.18,0.379 C 2.187,-1.667 2.138,-1.688 2.104,-1.7 2.07,-1.712 2.045,-1.717 2.027,-1.717 c -0.042,0.002 -0.081,0.03 -0.114,0.084 -0.034,0.055 -0.052,0.126 -0.054,0.215 0,0.064 0.001,0.128 0.004,0.191 0.003,0.063 0.005,0.13 0.008,0.201 l 0.025,0.902 c 0.004,0.039 0.005,0.079 0.006,0.119 0,0.04 0.001,0.087 0.001,0.142 C 1.894,0.441 1.804,0.667 1.63,0.816 1.457,0.964 1.249,1.039 1.008,1.038 0.846,1.047 0.662,1.011 0.454,0.931 0.246,0.851 -0.025,0.676 -0.36,0.405 Z M 1.157,-1.406 C 1.065,-1.502 0.972,-1.575 0.877,-1.624 0.782,-1.673 0.695,-1.698 0.616,-1.698 0.496,-1.697 0.4,-1.665 0.328,-1.601 c -0.072,0.064 -0.109,0.154 -0.111,0.27 -0.005,0.156 0.064,0.284 0.206,0.385 0.142,0.1 0.391,0.19 0.747,0.268 z" />
    </g>
    <g
       transform="matrix(1.1004051,0,0,-1.1004051,63.174397,41.651846)"
       id="g254">
      <path
         inkscape:connector-curvature="0"
         id="path256"
         style="fill:#f35d19;fill-opacity:1;fill-rule:evenodd;stroke:none"
         d="M 0,0 H 0.764 L 0.783,1.94 C 0.86,2.107 0.953,2.24 1.061,2.337 1.17,2.435 1.297,2.485 1.442,2.487 1.47,2.487 1.499,2.485 1.53,2.479 1.56,2.475 1.591,2.469 1.622,2.462 L 1.747,3.189 C 1.672,3.209 1.597,3.219 1.523,3.22 1.333,3.209 1.182,3.141 1.071,3.016 0.959,2.89 0.867,2.734 0.795,2.55 L 0.789,2.562 V 3.133 H 0.031 Z" />
    </g>
    <g
       transform="matrix(1.1004051,0,0,-1.1004051,67.811799,40.653338)"
       id="g258">
      <path
         inkscape:connector-curvature="0"
         id="path260"
         style="fill:#f35d19;fill-opacity:1;fill-rule:evenodd;stroke:none"
         d="m 0,0 c -0.086,-0.094 -0.179,-0.174 -0.281,-0.242 -0.101,-0.068 -0.221,-0.103 -0.359,-0.106 -0.195,0.001 -0.354,0.09 -0.479,0.265 -0.124,0.176 -0.189,0.43 -0.193,0.761 0,0.163 0.026,0.32 0.079,0.469 0.052,0.15 0.131,0.273 0.236,0.37 0.105,0.096 0.236,0.147 0.394,0.15 0.131,-0.003 0.246,-0.033 0.345,-0.091 0.099,-0.058 0.195,-0.127 0.289,-0.208 L 0.46,1.785 C 0.321,1.943 0.161,2.069 -0.02,2.165 -0.2,2.261 -0.405,2.311 -0.634,2.313 -0.946,2.308 -1.212,2.225 -1.431,2.063 -1.65,1.902 -1.817,1.693 -1.933,1.435 -2.048,1.178 -2.107,0.903 -2.107,0.61 c 0,-0.259 0.051,-0.51 0.154,-0.754 0.102,-0.243 0.254,-0.444 0.456,-0.603 0.202,-0.159 0.452,-0.242 0.751,-0.247 0.247,0.001 0.466,0.054 0.656,0.158 0.191,0.104 0.362,0.25 0.513,0.438 z" />
    </g>
    <g
       transform="matrix(1.1004051,0,0,-1.1004051,68.969013,41.651846)"
       id="g262">
      <path
         inkscape:connector-curvature="0"
         id="path264"
         style="fill:#f35d19;fill-opacity:1;fill-rule:evenodd;stroke:none"
         d="M 0,0 H 0.76 L 0.772,2.127 C 0.87,2.226 0.98,2.317 1.101,2.402 1.221,2.486 1.342,2.532 1.462,2.537 1.617,2.535 1.725,2.495 1.786,2.417 1.846,2.339 1.875,2.238 1.872,2.114 1.872,1.98 1.87,1.788 1.868,1.538 1.866,1.287 1.863,1.036 1.859,0.784 L 1.853,0 h 0.76 l 0.019,1.573 c 0,0.097 10e-4,0.2 0.003,0.309 0.002,0.11 0.002,0.241 0.003,0.394 C 2.644,2.527 2.588,2.745 2.468,2.93 2.348,3.114 2.127,3.211 1.803,3.22 1.594,3.218 1.404,3.175 1.232,3.09 1.06,3.005 0.913,2.894 0.791,2.754 H 0.779 l 0.012,1.909 h -0.76 z" />
    </g>
    <g
       transform="matrix(1.1004051,0,0,-1.1004051,2.8432424,33.668726)"
       id="g266">
      <path
         inkscape:connector-curvature="0"
         id="path268"
         style="fill:#f35d19;fill-opacity:1;fill-rule:evenodd;stroke:none"
         d="M 0,0 H 2.48 V 0.683 H 0.795 L 0.833,4.302 H 0.037 Z" />
    </g>
    <g
       transform="matrix(1.1004051,0,0,-1.1004051,8.8696121,32.047056)"
       id="g270">
      <path
         inkscape:connector-curvature="0"
         id="path272"
         style="fill:#f35d19;fill-opacity:1;fill-rule:evenodd;stroke:none"
         d="M 0,0 C 0.001,0.551 -0.104,0.979 -0.315,1.284 -0.527,1.588 -0.853,1.742 -1.293,1.747 -1.598,1.741 -1.857,1.659 -2.07,1.5 -2.282,1.34 -2.444,1.135 -2.555,0.883 -2.666,0.631 -2.722,0.363 -2.723,0.081 c 0.007,-0.499 0.136,-0.895 0.386,-1.19 0.249,-0.294 0.577,-0.445 0.982,-0.452 0.256,0.003 0.491,0.06 0.705,0.17 0.214,0.111 0.404,0.259 0.569,0.445 l -0.435,0.398 c -0.095,-0.106 -0.203,-0.199 -0.323,-0.279 -0.121,-0.079 -0.255,-0.121 -0.404,-0.125 -0.174,0.004 -0.313,0.054 -0.418,0.151 -0.105,0.098 -0.182,0.218 -0.23,0.363 -0.048,0.145 -0.073,0.291 -0.074,0.438 z m -1.927,0.534 c 0.018,0.165 0.085,0.317 0.2,0.456 0.115,0.14 0.26,0.214 0.434,0.223 0.197,-0.008 0.34,-0.078 0.429,-0.214 0.089,-0.134 0.137,-0.289 0.144,-0.465 z" />
    </g>
    <g
       transform="matrix(1.1004051,0,0,-1.1004051,9.4822006,33.668726)"
       id="g274">
      <path
         inkscape:connector-curvature="0"
         id="path276"
         style="fill:#f35d19;fill-opacity:1;fill-rule:evenodd;stroke:none"
         d="M 0,0 H 0.758 L 0.789,3.133 H 0.031 Z M 0.031,3.569 H 0.789 L 0.795,4.302 H 0.037 Z" />
    </g>
    <g
       transform="matrix(1.1004051,0,0,-1.1004051,12.056605,31.287453)"
       id="g278">
      <path
         inkscape:connector-curvature="0"
         id="path280"
         style="fill:#f35d19;fill-opacity:1;fill-rule:evenodd;stroke:none"
         d="M 0,0 C 0.079,0.126 0.168,0.225 0.268,0.299 0.367,0.372 0.487,0.409 0.629,0.41 0.792,0.407 0.926,0.357 1.029,0.261 1.133,0.164 1.21,0.041 1.259,-0.109 1.308,-0.259 1.332,-0.416 1.332,-0.579 1.332,-0.746 1.301,-0.908 1.24,-1.063 1.179,-1.219 1.087,-1.347 0.963,-1.448 0.84,-1.549 0.685,-1.602 0.498,-1.605 0.39,-1.602 0.289,-1.577 0.197,-1.528 c -0.092,0.049 -0.16,0.104 -0.203,0.165 z m -0.758,-2.164 h 0.727 v 0.273 h 0.013 c 0.074,-0.129 0.174,-0.222 0.302,-0.277 0.128,-0.057 0.268,-0.084 0.419,-0.083 0.295,0.007 0.546,0.098 0.752,0.274 0.206,0.176 0.363,0.397 0.471,0.661 0.108,0.265 0.163,0.534 0.163,0.806 C 2.088,-0.223 2.036,0.039 1.934,0.275 1.831,0.51 1.686,0.699 1.498,0.84 1.309,0.981 1.086,1.053 0.827,1.056 0.634,1.055 0.467,1.014 0.327,0.931 0.187,0.849 0.083,0.731 0.013,0.578 L 0,0.59 0.025,2.499 h -0.758 z" />
    </g>
    <g
       transform="matrix(1.1004051,0,0,-1.1004051,14.987086,33.668726)"
       id="g282">
      <path
         inkscape:connector-curvature="0"
         id="path284"
         style="fill:#f35d19;fill-opacity:1;fill-rule:evenodd;stroke:none"
         d="M 0,0 H 0.76 L 0.772,2.127 C 0.871,2.225 0.98,2.317 1.102,2.402 1.223,2.486 1.343,2.532 1.464,2.537 1.62,2.54 1.728,2.5 1.788,2.42 1.848,2.341 1.877,2.205 1.874,2.015 1.874,1.831 1.873,1.639 1.87,1.441 1.868,1.243 1.865,1.024 1.862,0.784 L 1.856,0 h 0.758 l 0.018,1.573 c 0,0.097 10e-4,0.2 0.003,0.309 0.002,0.11 0.003,0.241 0.004,0.394 C 2.645,2.527 2.588,2.745 2.469,2.93 2.35,3.114 2.129,3.211 1.806,3.22 1.596,3.218 1.405,3.174 1.233,3.09 1.061,3.005 0.913,2.894 0.791,2.754 H 0.778 V 3.133 H 0.031 Z" />
    </g>
    <g
       transform="matrix(1.1004051,0,0,-1.1004051,18.787891,33.668726)"
       id="g286">
      <path
         inkscape:connector-curvature="0"
         id="path288"
         style="fill:#f35d19;fill-opacity:1;fill-rule:evenodd;stroke:none"
         d="M 0,0 H 0.758 L 0.789,3.133 H 0.031 Z M 0.031,3.569 H 0.789 L 0.795,4.302 H 0.037 Z" />
    </g>
    <g
       transform="matrix(1.1004051,0,0,-1.1004051,20.528836,33.668726)"
       id="g290">
      <path
         inkscape:connector-curvature="0"
         id="path292"
         style="fill:#f35d19;fill-opacity:1;fill-rule:evenodd;stroke:none"
         d="M 0,0 H 2.151 V 0.609 H 0.765 l 1.46,2.077 -0.23,0.447 H -0.149 V 2.525 H 1.225 L -0.224,0.447 Z" />
    </g>
    <g
       transform="matrix(1.1004051,0,0,-1.1004051,25.416729,33.668726)"
       id="g294">
      <path
         inkscape:connector-curvature="0"
         id="path296"
         style="fill:#f35d19;fill-opacity:1;fill-rule:evenodd;stroke:none"
         d="M 0,0 H 0.795 L 0.832,4.302 H 0.037 Z" />
    </g>
    <g
       transform="matrix(1.1004051,0,0,-1.1004051,27.212699,33.668726)"
       id="g298">
      <path
         inkscape:connector-curvature="0"
         id="path300"
         style="fill:#f35d19;fill-opacity:1;fill-rule:evenodd;stroke:none"
         d="M 0,0 H 0.76 L 0.772,2.127 C 0.871,2.225 0.98,2.317 1.102,2.402 1.223,2.486 1.343,2.532 1.464,2.537 1.619,2.54 1.728,2.5 1.788,2.42 1.848,2.341 1.877,2.205 1.874,2.015 1.874,1.831 1.873,1.639 1.871,1.441 1.868,1.243 1.865,1.024 1.862,0.784 L 1.856,0 H 2.614 L 2.632,1.573 C 2.633,1.67 2.634,1.773 2.635,1.882 2.637,1.992 2.638,2.123 2.639,2.276 2.645,2.527 2.588,2.745 2.469,2.93 2.35,3.114 2.129,3.211 1.806,3.22 1.596,3.218 1.405,3.174 1.233,3.09 1.061,3.005 0.914,2.894 0.791,2.754 H 0.779 V 3.133 H 0.031 Z" />
    </g>
    <g
       transform="matrix(1.1004051,0,0,-1.1004051,30.770526,33.436342)"
       id="g302">
      <path
         inkscape:connector-curvature="0"
         id="path304"
         style="fill:#f35d19;fill-opacity:1;fill-rule:evenodd;stroke:none"
         d="m 0,0 c 0.163,-0.097 0.335,-0.17 0.516,-0.221 0.183,-0.051 0.369,-0.077 0.56,-0.077 0.206,-0.001 0.398,0.036 0.577,0.11 0.178,0.073 0.322,0.184 0.433,0.332 0.11,0.148 0.167,0.334 0.171,0.558 C 2.249,0.98 2.171,1.183 2.022,1.311 1.874,1.439 1.702,1.531 1.507,1.586 1.312,1.642 1.14,1.7 0.992,1.76 0.844,1.82 0.766,1.922 0.758,2.065 0.765,2.192 0.818,2.286 0.919,2.347 1.02,2.408 1.128,2.438 1.244,2.438 1.362,2.436 1.483,2.411 1.607,2.365 1.732,2.318 1.841,2.259 1.934,2.189 L 2.257,2.668 C 2.113,2.785 1.945,2.871 1.755,2.927 1.566,2.982 1.378,3.01 1.194,3.009 0.879,3.009 0.61,2.928 0.387,2.767 0.164,2.606 0.048,2.363 0.038,2.039 0.045,1.733 0.121,1.513 0.266,1.379 0.41,1.246 0.578,1.154 0.768,1.104 0.958,1.054 1.126,1.002 1.27,0.947 1.415,0.892 1.491,0.79 1.499,0.64 1.495,0.513 1.451,0.42 1.367,0.361 1.283,0.302 1.182,0.272 1.063,0.273 0.92,0.275 0.784,0.301 0.655,0.35 0.526,0.399 0.4,0.461 0.279,0.534 Z" />
    </g>
    <g
       transform="matrix(1.1004051,0,0,-1.1004051,35.543975,32.971635)"
       id="g306">
      <path
         inkscape:connector-curvature="0"
         id="path308"
         style="fill:#f35d19;fill-opacity:1;fill-rule:evenodd;stroke:none"
         d="m 0,0 c -0.053,-0.039 -0.108,-0.073 -0.165,-0.103 -0.057,-0.029 -0.119,-0.045 -0.183,-0.046 -0.093,0.001 -0.159,0.03 -0.198,0.088 -0.039,0.057 -0.058,0.138 -0.058,0.241 0,0.116 0.001,0.244 0.001,0.384 0.001,0.14 0.003,0.288 0.006,0.444 l 0.018,0.92 H 0.118 V 2.5 l -0.7,-0.013 0.025,1.12 H -1.315 L -1.339,2.487 -1.759,2.5 V 1.928 h 0.423 L -1.355,0.97 C -1.358,0.828 -1.36,0.687 -1.361,0.545 c 0,-0.141 -0.001,-0.25 0,-0.327 0.003,-0.33 0.079,-0.57 0.23,-0.719 0.15,-0.149 0.357,-0.222 0.621,-0.22 0.048,-0.001 0.113,0.006 0.196,0.021 0.083,0.015 0.175,0.05 0.277,0.104 l 0.255,0.136 z" />
    </g>
    <g
       transform="matrix(1.1004051,0,0,-1.1004051,36.183424,33.668726)"
       id="g310">
      <path
         inkscape:connector-curvature="0"
         id="path312"
         style="fill:#f35d19;fill-opacity:1;fill-rule:evenodd;stroke:none"
         d="M 0,0 H 0.758 L 0.789,3.133 H 0.031 Z M 0.031,3.569 H 0.789 L 0.795,4.302 H 0.037 Z" />
    </g>
    <g
       transform="matrix(1.1004051,0,0,-1.1004051,39.596221,32.971635)"
       id="g314">
      <path
         inkscape:connector-curvature="0"
         id="path316"
         style="fill:#f35d19;fill-opacity:1;fill-rule:evenodd;stroke:none"
         d="m 0,0 c -0.053,-0.039 -0.108,-0.073 -0.165,-0.103 -0.057,-0.029 -0.118,-0.045 -0.183,-0.046 -0.093,0.001 -0.158,0.03 -0.198,0.088 -0.039,0.057 -0.058,0.138 -0.057,0.241 -0.001,0.116 0,0.244 0.001,0.384 0,0.14 0.002,0.288 0.005,0.444 l 0.019,0.92 H 0.118 V 2.5 l -0.699,-0.013 0.024,1.12 H -1.314 L -1.339,2.487 -1.759,2.5 V 1.928 h 0.423 L -1.355,0.97 C -1.358,0.828 -1.36,0.687 -1.36,0.545 -1.361,0.404 -1.361,0.295 -1.361,0.218 c 0.003,-0.33 0.079,-0.57 0.23,-0.719 0.15,-0.149 0.357,-0.222 0.621,-0.22 0.048,-0.001 0.114,0.006 0.196,0.021 0.084,0.015 0.176,0.05 0.277,0.104 l 0.255,0.136 z" />
    </g>
    <g
       transform="matrix(1.1004051,0,0,-1.1004051,43.077902,30.220728)"
       id="g318">
      <path
         inkscape:connector-curvature="0"
         id="path320"
         style="fill:#f35d19;fill-opacity:1;fill-rule:evenodd;stroke:none"
         d="M 0,0 H -0.758 L -0.77,-2.127 c -0.099,-0.099 -0.209,-0.19 -0.329,-0.275 -0.121,-0.084 -0.242,-0.13 -0.362,-0.135 -0.156,-0.002 -0.264,0.039 -0.325,0.12 -0.06,0.082 -0.088,0.214 -0.086,0.396 0,0.173 0.002,0.365 0.004,0.577 0.002,0.211 0.005,0.431 0.009,0.66 L -1.853,0 H -2.611 L -2.63,-1.574 c 0,-0.099 -10e-4,-0.197 -0.003,-0.294 -0.002,-0.097 -0.003,-0.194 -0.003,-0.29 -0.007,-0.311 0.052,-0.564 0.176,-0.76 0.125,-0.195 0.356,-0.296 0.694,-0.302 0.192,0.002 0.372,0.046 0.539,0.13 0.168,0.085 0.312,0.196 0.432,0.335 h 0.012 v -0.378 h 0.758 z" />
    </g>
    <g
       transform="matrix(1.1004051,0,0,-1.1004051,45.541486,32.971635)"
       id="g322">
      <path
         inkscape:connector-curvature="0"
         id="path324"
         style="fill:#f35d19;fill-opacity:1;fill-rule:evenodd;stroke:none"
         d="m 0,0 c -0.052,-0.039 -0.107,-0.073 -0.165,-0.103 -0.057,-0.029 -0.118,-0.045 -0.183,-0.046 -0.093,0.001 -0.158,0.03 -0.198,0.088 -0.039,0.057 -0.058,0.138 -0.057,0.241 0,0.116 0,0.244 0.001,0.384 0,0.14 0.002,0.288 0.005,0.444 l 0.019,0.92 H 0.118 V 2.5 l -0.699,-0.013 0.025,1.12 H -1.314 L -1.339,2.487 -1.759,2.5 V 1.928 h 0.423 L -1.355,0.97 C -1.358,0.828 -1.36,0.687 -1.36,0.545 -1.361,0.404 -1.361,0.295 -1.361,0.218 c 0.003,-0.33 0.079,-0.57 0.23,-0.719 0.15,-0.149 0.357,-0.222 0.621,-0.22 0.048,-0.001 0.114,0.006 0.197,0.021 0.083,0.015 0.175,0.05 0.276,0.104 l 0.255,0.136 z" />
    </g>
    <g
       transform="matrix(1.1004051,0,0,-1.1004051,48.913791,32.047056)"
       id="g326">
      <path
         inkscape:connector-curvature="0"
         id="path328"
         style="fill:#f35d19;fill-opacity:1;fill-rule:evenodd;stroke:none"
         d="M 0,0 C 0.001,0.551 -0.104,0.979 -0.315,1.284 -0.527,1.588 -0.853,1.742 -1.293,1.747 -1.598,1.741 -1.858,1.659 -2.07,1.5 -2.283,1.34 -2.444,1.135 -2.555,0.883 -2.666,0.631 -2.722,0.363 -2.723,0.081 c 0.007,-0.499 0.136,-0.895 0.386,-1.19 0.249,-0.294 0.576,-0.445 0.982,-0.452 0.255,0.003 0.49,0.06 0.705,0.17 0.214,0.111 0.404,0.259 0.569,0.445 l -0.435,0.398 c -0.095,-0.106 -0.203,-0.199 -0.324,-0.279 -0.12,-0.079 -0.254,-0.121 -0.403,-0.125 -0.173,0.004 -0.313,0.054 -0.418,0.151 -0.106,0.098 -0.182,0.218 -0.23,0.363 -0.048,0.145 -0.073,0.291 -0.074,0.438 z m -1.928,0.534 c 0.019,0.165 0.086,0.317 0.201,0.456 0.115,0.14 0.26,0.214 0.434,0.223 0.197,-0.008 0.34,-0.078 0.428,-0.214 0.089,-0.134 0.137,-0.289 0.144,-0.465 z" />
    </g>
    <g
       transform="matrix(1.1004051,0,0,-1.1004051,51.533639,33.668726)"
       id="g330">
      <path
         inkscape:connector-curvature="0"
         id="path332"
         style="fill:#f35d19;fill-opacity:1;fill-rule:evenodd;stroke:none"
         d="M 0,0 H 0.764 V 2.562 H 1.43 V 3.133 H 0.783 v 0.43 C 0.786,3.757 0.83,3.896 0.917,3.98 1.005,4.065 1.119,4.106 1.262,4.104 H 1.436 V 4.713 H 1.193 C 0.807,4.706 0.514,4.595 0.314,4.379 0.114,4.164 0.014,3.883 0.012,3.538 V 3.133 H -0.485 V 2.562 h 0.497 z" />
    </g>
    <g
       transform="matrix(1.1004051,0,0,-1.1004051,53.314972,31.944712)"
       id="g334">
      <path
         inkscape:connector-curvature="0"
         id="path336"
         style="fill:#f35d19;fill-opacity:1;fill-rule:evenodd;stroke:none"
         d="M 0,0 C 0,-0.301 0.054,-0.575 0.162,-0.824 0.27,-1.073 0.435,-1.272 0.657,-1.423 0.878,-1.573 1.159,-1.65 1.498,-1.654 1.814,-1.65 2.084,-1.573 2.307,-1.423 2.53,-1.272 2.7,-1.073 2.818,-0.824 2.936,-0.575 2.995,-0.301 2.997,0 2.996,0.312 2.941,0.592 2.829,0.84 2.718,1.089 2.551,1.285 2.329,1.431 2.107,1.576 1.83,1.65 1.498,1.654 1.19,1.648 0.924,1.567 0.701,1.409 0.477,1.251 0.305,1.047 0.184,0.796 0.063,0.546 0.001,0.281 0,0 Z M 0.758,-0.025 C 0.757,0.125 0.779,0.282 0.824,0.446 0.869,0.61 0.946,0.749 1.055,0.864 1.163,0.98 1.311,1.04 1.498,1.045 1.752,1.041 1.939,0.944 2.06,0.755 2.18,0.565 2.24,0.306 2.239,-0.025 2.24,-0.175 2.216,-0.327 2.168,-0.483 2.121,-0.639 2.042,-0.77 1.934,-0.877 1.825,-0.985 1.68,-1.041 1.498,-1.045 1.311,-1.04 1.163,-0.98 1.055,-0.865 0.946,-0.75 0.869,-0.615 0.824,-0.458 0.779,-0.301 0.757,-0.157 0.758,-0.025" />
    </g>
    <g
       transform="matrix(1.1004051,0,0,-1.1004051,57.249896,33.668726)"
       id="g338">
      <path
         inkscape:connector-curvature="0"
         id="path340"
         style="fill:#f35d19;fill-opacity:1;fill-rule:evenodd;stroke:none"
         d="M 0,0 H 0.764 L 0.783,1.94 C 0.86,2.107 0.953,2.24 1.061,2.337 1.169,2.435 1.296,2.485 1.442,2.487 1.47,2.487 1.499,2.485 1.53,2.479 1.56,2.475 1.591,2.469 1.622,2.462 L 1.746,3.189 C 1.672,3.209 1.597,3.219 1.522,3.22 1.333,3.209 1.182,3.141 1.07,3.015 0.958,2.89 0.867,2.734 0.795,2.549 L 0.789,2.562 V 3.133 H 0.031 Z" />
    </g>
    <g
       transform="matrix(1.1004051,0,0,-1.1004051,61.333067,33.668726)"
       id="g342">
      <path
         inkscape:connector-curvature="0"
         id="path344"
         style="fill:#f35d19;fill-opacity:1;fill-rule:evenodd;stroke:none"
         d="M 0,0 H 2.723 V 0.683 H 0.802 L 2.823,3.731 2.574,4.302 H -0.149 V 3.619 h 1.958 l -2.058,-3.11 z" />
    </g>
    <g
       transform="matrix(1.1004051,0,0,-1.1004051,64.833468,31.944712)"
       id="g346">
      <path
         inkscape:connector-curvature="0"
         id="path348"
         style="fill:#f35d19;fill-opacity:1;fill-rule:evenodd;stroke:none"
         d="M 0,0 C 0,-0.301 0.053,-0.575 0.162,-0.824 0.27,-1.073 0.435,-1.272 0.656,-1.423 0.878,-1.573 1.159,-1.65 1.498,-1.654 1.814,-1.65 2.083,-1.573 2.307,-1.423 2.53,-1.272 2.7,-1.073 2.818,-0.824 2.936,-0.575 2.995,-0.301 2.996,0 2.996,0.312 2.94,0.592 2.829,0.84 2.718,1.089 2.551,1.285 2.329,1.431 2.107,1.576 1.83,1.65 1.498,1.654 1.19,1.648 0.924,1.567 0.701,1.409 0.477,1.251 0.305,1.047 0.184,0.796 0.063,0.546 0.001,0.281 0,0 Z M 0.758,-0.025 C 0.756,0.125 0.778,0.282 0.824,0.446 0.869,0.61 0.946,0.749 1.055,0.864 1.163,0.98 1.311,1.04 1.498,1.045 1.752,1.041 1.939,0.944 2.06,0.755 2.18,0.565 2.24,0.306 2.238,-0.025 2.24,-0.175 2.216,-0.327 2.168,-0.483 2.12,-0.639 2.042,-0.77 1.934,-0.877 1.825,-0.985 1.68,-1.041 1.498,-1.045 1.311,-1.04 1.163,-0.98 1.055,-0.865 0.946,-0.75 0.869,-0.615 0.824,-0.458 0.778,-0.301 0.756,-0.157 0.758,-0.025" />
    </g>
    <g
       transform="matrix(1.1004051,0,0,-1.1004051,68.566378,31.944712)"
       id="g350">
      <path
         inkscape:connector-curvature="0"
         id="path352"
         style="fill:#f35d19;fill-opacity:1;fill-rule:evenodd;stroke:none"
         d="M 0,0 C -0.001,-0.301 0.053,-0.575 0.162,-0.824 0.27,-1.073 0.435,-1.272 0.656,-1.423 0.878,-1.573 1.159,-1.65 1.498,-1.654 1.814,-1.65 2.084,-1.573 2.307,-1.423 2.53,-1.272 2.7,-1.073 2.818,-0.824 2.936,-0.575 2.995,-0.301 2.996,0 2.996,0.312 2.941,0.592 2.829,0.84 2.717,1.089 2.551,1.285 2.329,1.431 2.107,1.576 1.83,1.65 1.498,1.654 1.19,1.648 0.924,1.567 0.701,1.409 0.477,1.251 0.305,1.047 0.184,0.796 0.063,0.546 0.001,0.281 0,0 Z M 0.758,-0.025 C 0.757,0.125 0.778,0.282 0.824,0.446 0.869,0.61 0.946,0.749 1.054,0.864 1.163,0.98 1.311,1.04 1.498,1.045 1.752,1.041 1.939,0.944 2.06,0.755 2.18,0.565 2.24,0.306 2.238,-0.025 2.24,-0.175 2.216,-0.327 2.168,-0.483 2.12,-0.639 2.042,-0.77 1.934,-0.877 1.825,-0.985 1.68,-1.041 1.498,-1.045 1.311,-1.04 1.163,-0.98 1.054,-0.865 0.946,-0.75 0.869,-0.615 0.824,-0.458 0.778,-0.301 0.757,-0.157 0.758,-0.025" />
    </g>
    <g
       transform="matrix(1.1004051,0,0,-1.1004051,2.5521843,49.155846)"
       id="g354">
      <path
         inkscape:connector-curvature="0"
         id="path356"
         style="fill:#f68c50;fill-opacity:1;fill-rule:evenodd;stroke:none"
         d="M 0,0 H 0.447 L 0.468,2.42 H 0.021 Z" />
    </g>
    <g
       transform="matrix(1.1004051,0,0,-1.1004051,3.4639779,49.155846)"
       id="g358">
      <path
         inkscape:connector-curvature="0"
         id="path360"
         style="fill:#f68c50;fill-opacity:1;fill-rule:evenodd;stroke:none"
         d="M 0,0 H 0.447 L 0.412,1.787 0.419,1.794 1.522,-0.049 1.972,0.077 1.993,2.42 H 1.546 L 1.574,0.615 H 1.567 L 0.437,2.469 0.021,2.343 Z" />
    </g>
    <g
       transform="matrix(1.1004051,0,0,-1.1004051,7.4766047,49.155846)"
       id="g362">
      <path
         inkscape:connector-curvature="0"
         id="path364"
         style="fill:#f68c50;fill-opacity:1;fill-rule:evenodd;stroke:none"
         d="M 0,0 H 0.447 L 0.465,2.035 H 1.133 L 1.136,2.42 H -0.657 L -0.661,2.035 h 0.679 z" />
    </g>
    <g
       transform="matrix(1.1004051,0,0,-1.1004051,8.9201204,49.155846)"
       id="g366">
      <path
         inkscape:connector-curvature="0"
         id="path368"
         style="fill:#f68c50;fill-opacity:1;fill-rule:evenodd;stroke:none"
         d="M 0,0 H 0.451 L 0.465,1.049 H 1.532 L 1.518,0 H 1.972 L 1.993,2.42 H 1.539 L 1.532,1.434 H 0.465 L 0.472,2.42 H 0.021 Z" />
    </g>
    <g
       transform="matrix(1.1004051,0,0,-1.1004051,11.520702,49.155846)"
       id="g370">
      <path
         inkscape:connector-curvature="0"
         id="path372"
         style="fill:#f68c50;fill-opacity:1;fill-rule:evenodd;stroke:none"
         d="M 0,0 H 1.318 V 0.384 H 0.458 L 0.461,1.049 H 1.304 V 1.413 H 0.465 L 0.472,2.035 H 1.318 V 2.42 H 0.024 Z" />
    </g>
    <g
       transform="matrix(1.1004051,0,0,-1.1004051,14.159916,49.155846)"
       id="g374">
      <path
         inkscape:connector-curvature="0"
         id="path376"
         style="fill:#f68c50;fill-opacity:1;fill-rule:evenodd;stroke:none"
         d="M 0,0 H 0.458 L 0.461,1.028 H 1.346 L 1.35,1.413 H 0.468 L 0.472,2.035 H 1.36 L 1.364,2.42 H 0.025 Z" />
    </g>
    <g
       transform="matrix(1.1004051,0,0,-1.1004051,16.2969,47.824234)"
       id="g378">
      <path
         inkscape:connector-curvature="0"
         id="path380"
         style="fill:#f68c50;fill-opacity:1;fill-rule:evenodd;stroke:none"
         d="M 0,0 C 0.003,0.188 0.044,0.349 0.125,0.482 0.206,0.616 0.308,0.718 0.434,0.789 0.56,0.859 0.691,0.895 0.829,0.896 1.083,0.89 1.283,0.805 1.432,0.641 1.579,0.476 1.655,0.262 1.658,0 1.658,-0.162 1.623,-0.31 1.555,-0.445 1.486,-0.58 1.39,-0.688 1.267,-0.77 1.143,-0.852 0.997,-0.894 0.829,-0.896 0.576,-0.892 0.375,-0.808 0.227,-0.646 0.079,-0.484 0.003,-0.268 0,0 Z m -0.468,0 c 0.002,-0.247 0.06,-0.465 0.173,-0.653 0.113,-0.188 0.267,-0.336 0.461,-0.443 0.195,-0.107 0.416,-0.161 0.663,-0.163 0.248,0.002 0.469,0.059 0.663,0.169 0.195,0.111 0.349,0.261 0.462,0.449 C 2.067,-0.452 2.124,-0.238 2.127,0 2.125,0.238 2.071,0.451 1.965,0.64 1.858,0.829 1.708,0.979 1.514,1.09 1.32,1.2 1.092,1.257 0.829,1.259 0.587,1.257 0.368,1.2 0.173,1.09 -0.022,0.979 -0.177,0.829 -0.292,0.64 -0.407,0.451 -0.465,0.238 -0.468,0" />
    </g>
    <g
       transform="matrix(1.1004051,0,0,-1.1004051,18.92896,49.155846)"
       id="g382">
      <path
         inkscape:connector-curvature="0"
         id="path384"
         style="fill:#f68c50;fill-opacity:1;fill-rule:evenodd;stroke:none"
         d="m 0,0 h 0.458 l 0.004,0.969 h 0.139 c 0.033,0 0.063,-0.006 0.09,-0.02 C 0.717,0.936 0.741,0.914 0.762,0.885 L 1.432,-0.049 1.831,0.189 1.142,1.091 C 1.286,1.143 1.399,1.221 1.483,1.329 1.566,1.435 1.609,1.566 1.61,1.721 1.613,1.918 1.549,2.083 1.419,2.215 1.289,2.347 1.079,2.415 0.789,2.42 H 0.025 Z M 0.468,1.332 0.475,2.057 H 0.734 C 0.85,2.056 0.947,2.027 1.023,1.968 1.1,1.91 1.139,1.822 1.142,1.707 1.14,1.603 1.115,1.524 1.068,1.469 1.022,1.415 0.968,1.378 0.906,1.359 0.845,1.34 0.791,1.331 0.744,1.332 Z" />
    </g>
    <g
       transform="matrix(1.1004051,0,0,-1.1004051,20.951505,49.006185)"
       id="g386">
      <path
         inkscape:connector-curvature="0"
         id="path388"
         style="fill:#f68c50;fill-opacity:1;fill-rule:evenodd;stroke:none"
         d="m 0,0 c 0.101,-0.059 0.207,-0.105 0.317,-0.137 0.11,-0.032 0.223,-0.048 0.34,-0.048 0.239,0.005 0.431,0.075 0.577,0.211 0.145,0.135 0.22,0.309 0.224,0.52 C 1.453,0.735 1.4,0.878 1.3,0.977 1.199,1.075 1.083,1.152 0.951,1.207 0.819,1.262 0.703,1.32 0.602,1.381 0.502,1.441 0.449,1.529 0.444,1.644 0.448,1.753 0.488,1.834 0.565,1.888 0.643,1.942 0.734,1.97 0.84,1.97 0.926,1.968 1.006,1.951 1.079,1.919 1.152,1.887 1.225,1.851 1.297,1.809 L 1.486,2.13 C 1.383,2.191 1.273,2.239 1.158,2.276 1.044,2.313 0.925,2.332 0.804,2.333 0.558,2.328 0.363,2.261 0.218,2.13 0.074,1.999 0,1.832 -0.003,1.63 0.002,1.428 0.053,1.278 0.151,1.178 0.249,1.078 0.363,1.002 0.492,0.951 0.621,0.899 0.735,0.845 0.833,0.788 0.932,0.731 0.984,0.644 0.99,0.528 0.989,0.43 0.955,0.347 0.889,0.281 0.822,0.215 0.727,0.181 0.602,0.179 0.532,0.18 0.459,0.198 0.38,0.232 0.302,0.265 0.233,0.302 0.175,0.343 Z" />
    </g>
    <g
       transform="matrix(1.1004051,0,0,-1.1004051,24.857388,48.613438)"
       id="g390">
      <path
         inkscape:connector-curvature="0"
         id="path392"
         style="fill:#f68c50;fill-opacity:1;fill-rule:evenodd;stroke:none"
         d="m 0,0 c -0.071,-0.043 -0.152,-0.08 -0.244,-0.11 -0.092,-0.031 -0.214,-0.046 -0.365,-0.048 -0.151,0.003 -0.285,0.045 -0.4,0.128 -0.115,0.083 -0.205,0.192 -0.27,0.325 -0.065,0.134 -0.098,0.28 -0.099,0.436 0.003,0.247 0.074,0.451 0.215,0.611 0.139,0.161 0.329,0.244 0.568,0.25 0.1,-0.001 0.202,-0.02 0.308,-0.056 0.105,-0.037 0.196,-0.087 0.273,-0.151 L 0.182,1.697 C 0.07,1.789 -0.053,1.859 -0.189,1.906 -0.324,1.952 -0.464,1.976 -0.609,1.976 -0.851,1.974 -1.065,1.92 -1.25,1.813 -1.435,1.707 -1.58,1.559 -1.686,1.369 -1.791,1.18 -1.844,0.96 -1.847,0.71 c 0.003,-0.243 0.058,-0.459 0.166,-0.646 0.108,-0.188 0.256,-0.335 0.444,-0.442 0.188,-0.107 0.404,-0.162 0.646,-0.164 0.137,0 0.271,0.019 0.403,0.058 0.131,0.039 0.253,0.098 0.366,0.176 z" />
    </g>
    <g
       transform="matrix(1.1004051,0,0,-1.1004051,25.22988,49.155846)"
       id="g394">
      <path
         inkscape:connector-curvature="0"
         id="path396"
         style="fill:#f68c50;fill-opacity:1;fill-rule:evenodd;stroke:none"
         d="M 0,0 H 0.451 L 0.465,1.049 H 1.532 L 1.518,0 H 1.972 L 1.993,2.42 H 1.539 L 1.532,1.434 H 0.465 L 0.472,2.42 H 0.021 Z" />
    </g>
    <g
       transform="matrix(1.1004051,0,0,-1.1004051,30.021374,46.492966)"
       id="g398">
      <path
         inkscape:connector-curvature="0"
         id="path400"
         style="fill:#f68c50;fill-opacity:1;fill-rule:evenodd;stroke:none"
         d="m 0,0 h -0.447 l -0.014,-1.521 c -0.002,-0.168 -0.049,-0.303 -0.14,-0.405 -0.091,-0.103 -0.225,-0.156 -0.402,-0.159 -0.153,0.002 -0.279,0.049 -0.38,0.142 -0.1,0.094 -0.152,0.226 -0.156,0.397 10e-4,0.257 0.002,0.515 0.006,0.773 0.003,0.258 0.006,0.516 0.008,0.773 h -0.447 c -0.002,-0.253 -0.005,-0.507 -0.008,-0.76 -0.004,-0.254 -0.006,-0.508 -0.006,-0.761 0.005,-0.314 0.095,-0.55 0.273,-0.709 0.177,-0.159 0.411,-0.238 0.702,-0.239 0.294,10e-4 0.532,0.081 0.713,0.239 0.181,0.157 0.276,0.385 0.284,0.684 z" />
    </g>
    <g
       transform="matrix(1.1004051,0,0,-1.1004051,30.426868,49.155846)"
       id="g402">
      <path
         inkscape:connector-curvature="0"
         id="path404"
         style="fill:#f68c50;fill-opacity:1;fill-rule:evenodd;stroke:none"
         d="M 0,0 H 0.447 L 0.412,1.787 0.419,1.794 1.521,-0.049 1.972,0.077 1.993,2.42 H 1.546 L 1.574,0.615 H 1.567 L 0.436,2.469 0.021,2.343 Z" />
    </g>
    <g
       transform="matrix(1.1004051,0,0,-1.1004051,34.747286,48.740642)"
       id="g406">
      <path
         inkscape:connector-curvature="0"
         id="path408"
         style="fill:#f68c50;fill-opacity:1;fill-rule:evenodd;stroke:none"
         d="m 0,0 c -0.048,-0.02 -0.101,-0.035 -0.158,-0.046 -0.058,-0.011 -0.12,-0.017 -0.185,-0.017 -0.254,0.004 -0.455,0.088 -0.603,0.25 -0.149,0.162 -0.225,0.377 -0.228,0.646 0.003,0.188 0.045,0.349 0.125,0.482 0.081,0.133 0.184,0.236 0.31,0.306 0.125,0.071 0.257,0.107 0.396,0.107 0.121,0 0.233,-0.014 0.333,-0.042 C 0.091,1.659 0.186,1.622 0.276,1.578 L 0.44,1.913 C 0.339,1.97 0.221,2.013 0.089,2.045 -0.043,2.076 -0.187,2.091 -0.343,2.092 -0.586,2.089 -0.806,2.033 -1.001,1.922 -1.196,1.812 -1.351,1.662 -1.466,1.473 -1.581,1.284 -1.639,1.071 -1.642,0.833 -1.64,0.586 -1.582,0.368 -1.469,0.18 c 0.113,-0.188 0.267,-0.336 0.462,-0.443 0.195,-0.107 0.416,-0.161 0.664,-0.163 0.133,0 0.269,0.016 0.406,0.048 0.137,0.031 0.272,0.073 0.405,0.126 L 0.486,0.85 H 0.018 Z" />
    </g>
    <g
       transform="matrix(1.1004051,0,0,-1.1004051,35.477186,49.006185)"
       id="g410">
      <path
         inkscape:connector-curvature="0"
         id="path412"
         style="fill:#f68c50;fill-opacity:1;fill-rule:evenodd;stroke:none"
         d="M 0,0 C 0.102,-0.059 0.207,-0.105 0.317,-0.137 0.426,-0.169 0.54,-0.185 0.657,-0.185 0.896,-0.18 1.088,-0.11 1.233,0.026 1.379,0.161 1.454,0.335 1.458,0.546 1.453,0.735 1.4,0.878 1.299,0.977 1.199,1.075 1.083,1.152 0.951,1.207 0.819,1.262 0.703,1.32 0.602,1.381 0.502,1.441 0.449,1.529 0.444,1.644 0.447,1.753 0.488,1.834 0.565,1.888 0.643,1.942 0.734,1.97 0.839,1.97 0.926,1.968 1.006,1.951 1.079,1.919 1.152,1.887 1.225,1.851 1.298,1.809 L 1.486,2.13 C 1.383,2.191 1.273,2.239 1.158,2.276 1.044,2.313 0.925,2.332 0.804,2.333 0.558,2.328 0.362,2.261 0.218,2.13 0.074,1.999 0,1.832 -0.003,1.63 0.002,1.428 0.053,1.278 0.151,1.178 0.249,1.078 0.363,1.002 0.492,0.951 0.621,0.899 0.735,0.845 0.833,0.788 0.932,0.731 0.984,0.644 0.99,0.528 0.989,0.43 0.955,0.347 0.889,0.281 0.822,0.215 0.726,0.181 0.601,0.179 0.532,0.18 0.458,0.198 0.38,0.232 0.301,0.265 0.233,0.302 0.175,0.343 Z" />
    </g>
    <g
       transform="matrix(1.1004051,0,0,-1.1004051,38.093615,49.155846)"
       id="g414">
      <path
         inkscape:connector-curvature="0"
         id="path416"
         style="fill:#f68c50;fill-opacity:1;fill-rule:evenodd;stroke:none"
         d="M 0,0 H 0.42 L 1.343,2.326 0.909,2.469 0.213,0.566 H 0.206 L -0.413,2.469 -0.864,2.326 Z" />
    </g>
    <g
       transform="matrix(1.1004051,0,0,-1.1004051,39.757211,49.155846)"
       id="g418">
      <path
         inkscape:connector-curvature="0"
         id="path420"
         style="fill:#f68c50;fill-opacity:1;fill-rule:evenodd;stroke:none"
         d="M 0,0 H 1.318 V 0.384 H 0.458 L 0.461,1.049 H 1.304 V 1.413 H 0.465 L 0.472,2.035 H 1.318 V 2.42 H 0.025 Z" />
    </g>
    <g
       transform="matrix(1.1004051,0,0,-1.1004051,41.500253,49.155846)"
       id="g422">
      <path
         inkscape:connector-curvature="0"
         id="path424"
         style="fill:#f68c50;fill-opacity:1;fill-rule:evenodd;stroke:none"
         d="m 0,0 h 0.458 l 0.003,0.969 h 0.14 C 0.634,0.969 0.664,0.963 0.69,0.949 0.717,0.936 0.741,0.914 0.761,0.885 L 1.432,-0.049 1.831,0.189 1.142,1.091 C 1.285,1.143 1.399,1.221 1.482,1.329 1.566,1.435 1.608,1.566 1.61,1.721 1.613,1.918 1.548,2.083 1.418,2.215 1.289,2.347 1.079,2.415 0.789,2.42 H 0.024 Z M 0.468,1.332 0.475,2.057 H 0.734 C 0.85,2.056 0.946,2.027 1.023,1.968 1.1,1.91 1.139,1.822 1.142,1.707 1.139,1.603 1.115,1.524 1.068,1.469 1.022,1.415 0.968,1.378 0.906,1.359 0.845,1.34 0.79,1.331 0.744,1.332 Z" />
    </g>
    <g
       transform="matrix(1.1004051,0,0,-1.1004051,43.670907,49.155846)"
       id="g426">
      <path
         inkscape:connector-curvature="0"
         id="path428"
         style="fill:#f68c50;fill-opacity:1;fill-rule:evenodd;stroke:none"
         d="M 0,0 H 0.88 C 1.112,0.002 1.297,0.062 1.434,0.178 1.572,0.294 1.642,0.454 1.645,0.657 1.644,0.807 1.604,0.932 1.523,1.034 1.443,1.135 1.328,1.199 1.18,1.224 l 0.001,0.007 c 0.121,0.015 0.221,0.072 0.3,0.17 C 1.56,1.5 1.6,1.632 1.603,1.798 1.601,1.983 1.532,2.132 1.399,2.245 1.265,2.359 1.082,2.417 0.849,2.42 H 0.024 Z M 0.454,0.342 0.465,1.049 H 0.713 C 0.876,1.049 0.998,1.018 1.078,0.955 1.159,0.893 1.198,0.801 1.198,0.678 1.198,0.574 1.161,0.492 1.087,0.432 1.013,0.372 0.903,0.342 0.758,0.342 Z m 0.014,1.05 0.004,0.686 H 0.755 C 0.888,2.077 0.992,2.049 1.065,1.992 1.139,1.936 1.176,1.852 1.177,1.742 1.173,1.62 1.128,1.531 1.041,1.475 0.955,1.418 0.851,1.391 0.73,1.392 Z" />
    </g>
    <g
       transform="matrix(1.1004051,0,0,-1.1004051,48.033135,46.492966)"
       id="g430">
      <path
         inkscape:connector-curvature="0"
         id="path432"
         style="fill:#f68c50;fill-opacity:1;fill-rule:evenodd;stroke:none"
         d="m 0,0 h -0.447 l -0.014,-1.521 c -0.002,-0.168 -0.049,-0.303 -0.14,-0.405 -0.092,-0.103 -0.226,-0.156 -0.403,-0.159 -0.152,0.002 -0.279,0.049 -0.379,0.142 -0.1,0.094 -0.152,0.226 -0.156,0.397 0,0.257 0.002,0.515 0.005,0.773 0.004,0.258 0.007,0.516 0.009,0.773 h -0.447 c -0.002,-0.253 -0.005,-0.507 -0.009,-0.76 -0.003,-0.254 -0.005,-0.508 -0.005,-0.761 0.005,-0.314 0.095,-0.55 0.272,-0.709 0.177,-0.159 0.411,-0.238 0.704,-0.239 0.293,10e-4 0.53,0.081 0.711,0.239 0.182,0.157 0.276,0.385 0.285,0.684 z" />
    </g>
    <g
       transform="matrix(1.1004051,0,0,-1.1004051,48.438087,49.155846)"
       id="g434">
      <path
         inkscape:connector-curvature="0"
         id="path436"
         style="fill:#f68c50;fill-opacity:1;fill-rule:evenodd;stroke:none"
         d="M 0,0 H 0.447 L 0.412,1.787 0.419,1.794 1.522,-0.049 1.972,0.077 1.993,2.42 H 1.546 L 1.574,0.615 H 1.567 L 0.437,2.469 0.021,2.343 Z" />
    </g>
    <g
       transform="matrix(1.1004051,0,0,-1.1004051,51.036361,49.155846)"
       id="g438">
      <path
         inkscape:connector-curvature="0"
         id="path440"
         style="fill:#f68c50;fill-opacity:1;fill-rule:evenodd;stroke:none"
         d="M 0,0 H 0.832 C 1.05,0.001 1.254,0.053 1.444,0.154 1.634,0.255 1.787,0.397 1.906,0.58 2.023,0.763 2.084,0.978 2.088,1.224 2.083,1.589 1.966,1.878 1.739,2.092 1.512,2.306 1.205,2.415 0.818,2.42 H 0.021 Z M 0.451,0.384 0.465,2.035 H 0.832 C 1.073,2.031 1.264,1.953 1.404,1.803 1.545,1.653 1.617,1.462 1.619,1.227 1.616,0.957 1.535,0.749 1.377,0.604 1.219,0.459 1.007,0.386 0.741,0.384 Z" />
    </g>
    <g
       transform="matrix(1.1004051,0,0,-1.1004051,54.533452,49.155846)"
       id="g442">
      <path
         inkscape:connector-curvature="0"
         id="path444"
         style="fill:#f68c50;fill-opacity:1;fill-rule:evenodd;stroke:none"
         d="M 0,0 H 0.88 C 1.112,0.002 1.297,0.062 1.434,0.178 1.572,0.294 1.642,0.454 1.645,0.657 1.644,0.807 1.603,0.932 1.523,1.034 1.443,1.135 1.328,1.199 1.18,1.224 V 1.231 C 1.302,1.246 1.402,1.303 1.481,1.401 1.56,1.5 1.6,1.632 1.603,1.798 1.6,1.983 1.532,2.132 1.399,2.245 1.265,2.359 1.082,2.417 0.849,2.42 H 0.024 Z M 0.454,0.342 0.465,1.049 H 0.713 C 0.876,1.049 0.998,1.018 1.078,0.955 1.158,0.893 1.198,0.801 1.198,0.678 1.198,0.574 1.161,0.492 1.087,0.432 1.012,0.372 0.903,0.342 0.758,0.342 Z m 0.014,1.05 0.003,0.686 H 0.754 C 0.888,2.077 0.992,2.049 1.065,1.992 1.139,1.936 1.176,1.852 1.177,1.742 1.173,1.62 1.128,1.531 1.041,1.475 0.955,1.418 0.851,1.391 0.73,1.392 Z" />
    </g>
    <g
       transform="matrix(1.1004051,0,0,-1.1004051,56.704109,49.155846)"
       id="g446">
      <path
         inkscape:connector-curvature="0"
         id="path448"
         style="fill:#f68c50;fill-opacity:1;fill-rule:evenodd;stroke:none"
         d="M 0,0 H 1.318 V 0.384 H 0.458 L 0.461,1.049 H 1.304 V 1.413 H 0.465 L 0.472,2.035 H 1.318 V 2.42 H 0.024 Z" />
    </g>
    <g
       transform="matrix(1.1004051,0,0,-1.1004051,58.446818,49.155846)"
       id="g450">
      <path
         inkscape:connector-curvature="0"
         id="path452"
         style="fill:#f68c50;fill-opacity:1;fill-rule:evenodd;stroke:none"
         d="m 0,0 h 0.458 l 0.003,0.969 h 0.14 C 0.634,0.969 0.664,0.963 0.69,0.949 0.717,0.936 0.741,0.914 0.762,0.885 L 1.432,-0.049 1.831,0.189 1.142,1.091 C 1.285,1.143 1.399,1.221 1.482,1.329 1.566,1.435 1.609,1.566 1.61,1.721 1.613,1.918 1.549,2.083 1.419,2.215 1.289,2.347 1.079,2.415 0.79,2.42 H 0.025 Z M 0.468,1.332 0.475,2.057 H 0.734 C 0.85,2.056 0.947,2.027 1.023,1.968 1.1,1.91 1.139,1.822 1.142,1.707 1.14,1.603 1.115,1.524 1.068,1.469 1.022,1.415 0.968,1.378 0.906,1.359 0.845,1.34 0.791,1.331 0.744,1.332 Z" />
    </g>
    <g
       transform="matrix(1.1004051,0,0,-1.1004051,60.642776,49.155846)"
       id="g454">
      <path
         inkscape:connector-curvature="0"
         id="path456"
         style="fill:#f68c50;fill-opacity:1;fill-rule:evenodd;stroke:none"
         d="M 0,0 H 1.395 V 0.384 H 0.447 L 0.468,2.42 H 0.021 Z" />
    </g>
    <g
       transform="matrix(1.1004051,0,0,-1.1004051,62.343365,49.155846)"
       id="g458">
      <path
         inkscape:connector-curvature="0"
         id="path460"
         style="fill:#f68c50;fill-opacity:1;fill-rule:evenodd;stroke:none"
         d="M 0,0 H 0.447 L 0.468,2.42 H 0.021 Z" />
    </g>
    <g
       transform="matrix(1.1004051,0,0,-1.1004051,63.255154,49.155846)"
       id="g462">
      <path
         inkscape:connector-curvature="0"
         id="path464"
         style="fill:#f68c50;fill-opacity:1;fill-rule:evenodd;stroke:none"
         d="M 0,0 H 0.447 L 0.412,1.787 0.419,1.794 1.522,-0.049 1.972,0.077 1.993,2.42 H 1.546 L 1.574,0.615 H 1.567 L 0.437,2.469 0.021,2.343 Z" />
    </g>
    <g
       transform="matrix(1.1004051,0,0,-1.1004051,66.752124,49.155846)"
       id="g466">
      <path
         inkscape:connector-curvature="0"
         id="path468"
         style="fill:#f68c50;fill-opacity:1;fill-rule:evenodd;stroke:none"
         d="M 0,0 H 1.318 V 0.384 H 0.458 L 0.461,1.049 H 1.304 V 1.413 H 0.465 L 0.472,2.035 H 1.318 V 2.42 H 0.024 Z" />
    </g>
    <g
       transform="matrix(1.1004051,0,0,-1.1004051,68.477791,49.155846)"
       id="g470">
      <path
         inkscape:connector-curvature="0"
         id="path472"
         style="fill:#f68c50;fill-opacity:1;fill-rule:evenodd;stroke:none"
         d="M 0,0 H 0.468 V 0.468 H 0 Z" />
    </g>
    <g
       transform="matrix(1.1004051,0,0,-1.1004051,70.116932,49.155846)"
       id="g474">
      <path
         inkscape:connector-curvature="0"
         id="path476"
         style="fill:#f68c50;fill-opacity:1;fill-rule:evenodd;stroke:none"
         d="M 0,0 H 0.42 L 1.343,2.326 0.909,2.469 0.213,0.566 H 0.206 L -0.413,2.469 -0.864,2.326 Z" />
    </g>
    <g
       transform="matrix(1.1004051,0,0,-1.1004051,71.393644,49.155846)"
       id="g478">
      <path
         inkscape:connector-curvature="0"
         id="path480"
         style="fill:#f68c50;fill-opacity:1;fill-rule:evenodd;stroke:none"
         d="M 0,0 H 0.468 V 0.468 H 0 Z" />
    </g>
    <g
       transform="matrix(1.1004051,0,0,-1.1004051,51.962796,13.760963)"
       id="g482">
      <path
         inkscape:connector-curvature="0"
         id="path484"
         style="fill:#f89c0e;fill-opacity:1;fill-rule:evenodd;stroke:none"
         d="m 0,0 c 0.196,0 0.031,-0.459 0.214,-0.565 0.19,-0.107 0.731,0.124 0.655,-0.131 -0.045,-0.156 -1.024,-0.366 -1.024,-0.59 0,-0.538 -0.218,-0.569 -0.431,-0.914 -0.169,-0.269 -0.314,-0.928 -0.538,-0.928 -0.518,0 -0.252,1.5 -0.197,1.683 0.028,0.093 0.359,0.3 0.638,0.655 C -0.438,-0.483 -0.241,0 0,0 Z m -2.5,0.383 0.576,-5.076 c 0.241,-0.028 0.479,-0.011 0.676,0.1 0.434,-1.007 0.951,-2.235 1.834,-2.094 1.238,0.201 0.631,2.018 1.538,1.742 0.873,-0.266 0.607,-2.255 3.014,-2.218 l 1.79,2.004 2.038,-2.338 h 5.311 l 1.231,1.086 0.155,1.176 C 14.598,-6.024 13.215,-7.038 11.935,-7.014 9.721,-6.969 7.759,-3.693 6.428,-1.765 5.169,0.055 3.7,0.193 1.569,0.818 1.193,0.928 -0.135,0.462 -0.472,0.245 -1.086,0.462 -1.89,0.331 -2.5,0.383 Z m -3.707,0 v -7.88 h -10.18 c -0.466,0 -0.611,0.655 -0.697,1.069 -1.8,0.055 -3.669,1.128 -1.965,1.555 -0.425,0.463 -0.242,0.935 0.358,1.197 0.821,0.362 4.287,-0.417 5.362,-0.655 -0.886,0.907 -1.741,3.072 -0.544,4.462 0.693,0.807 1.482,-0.983 2.645,-0.873 0.538,0.052 0.579,1.297 0.965,1.704 0.549,0 1.173,-0.058 1.659,-0.152 0.831,-0.165 1.569,-0.472 2.397,-0.427 z m -9.487,9.007 c 2.741,0 5.935,-2.71 6,-3.407 0.011,-0.117 -0.165,-0.589 0.073,-1.076 0.403,-0.821 1.131,-1.483 0.8,-2.034 -0.166,-0.28 -1.331,0.434 -1.928,1.145 -0.634,0.758 -1.486,-0.566 -1.9,-0.904 -0.479,-0.393 -0.604,1.066 -1.331,1.028 -1.204,-0.059 -1.804,-1.059 -2.59,-1.338 -0.466,-0.166 -0.6,0.317 -1.307,0.341 -0.234,0.007 -1,0.128 -1.145,-0.062 -0.293,-0.372 -0.807,-0.417 -1.241,-0.641 -0.501,-0.259 -0.935,-0.683 -1.09,-0.649 -0.438,0.1 1.079,1.859 1.372,2.097 -0.407,1.49 0.452,3.983 1.587,4.207 0.42,-1.417 1.224,-2.993 1.765,-2.903 0.197,0.031 0.617,0.206 0.731,0.634 0.066,0.252 -0.193,0.621 0.004,0.859 0.296,0.355 1.441,0.369 1.503,0.779 0.124,0.783 -1.124,1.279 -1.303,1.924 z M -36.785,1.135 c 0.466,0 0.276,-0.821 0.517,-1.056 1.648,-0.317 3.373,-1.341 3.373,-2.938 0,-0.613 0.02,-0.841 -0.197,-1.483 -0.507,0.156 -1.134,0.639 -1.793,0.314 -0.479,-0.234 -0.666,-1.021 -1.331,-1.155 -0.259,-0.048 -0.486,-0.197 -0.569,-0.514 -0.283,0.207 -1.317,1.097 -2.335,0.135 -0.279,0.355 -0.214,0.889 0.193,1.327 -2.079,0.104 -2.514,0.652 -2.514,1.635 0,1.148 0.983,2.117 2.18,2.438 0.017,0.369 0.052,1.107 0.431,1.228 0.579,0.182 1.421,0.069 2.045,0.069 z m 8.907,8.779 c 1.135,-0.555 1.324,-1.745 1.224,-2.772 -0.137,-1.438 -1.013,-1.745 -1.034,-2.021 -0.021,-0.338 0.121,-0.831 0.076,-1.221 -0.028,-0.265 0,-0.524 -0.041,-0.807 -0.035,-0.248 -0.083,-0.51 -0.121,-0.765 -0.052,-0.355 0.072,-0.635 0.017,-1.014 -0.041,-0.29 -0.497,-0.638 -0.504,-1.086 -0.01,-0.621 -0.037,-1.231 -0.089,-1.68 -0.138,-1.196 -0.242,-2.327 -0.642,-2.9 -0.979,-1.414 -1.655,-1.996 -2.248,-3.145 h -0.797 c 0.155,1.197 -0.655,2.548 -0.61,3.566 0.507,-0.655 1.004,-1.18 1.341,-2.249 -0.027,0.607 0.521,2.79 -1.144,4.046 0.127,0.227 -0.08,0.413 0.041,0.596 1.141,1.704 0.424,2.835 0.455,3.286 0.028,0.383 0.086,0.756 0.142,1.094 0.048,0.276 -0.559,0.72 -0.47,1.644 0.052,0.514 0.659,0.614 1.052,1.094 0.18,0.221 0.18,0.583 0.383,0.807 0.424,0.465 1.159,-0.035 1.762,0.127 0.083,0.876 1.294,2.156 1.207,3.4 z M -30.93,4.262 c 0.156,0.052 0.114,-0.127 0.1,-0.307 -0.014,-0.179 -0.158,-0.389 -0.227,-0.361 -0.069,0.027 -0.062,0.448 -0.159,0.655 -0.096,0.207 0.131,-0.038 0.286,0.013 z m 2.852,-0.241 c 0.045,0.007 -0.079,-0.203 -0.079,-0.362 0,-0.159 -0.176,-0.314 -0.241,-0.29 -0.066,0.024 -0.049,0.155 -0.007,0.235 0.041,0.079 0.282,0.41 0.327,0.417 z M -29.35,2.724 c 0.352,0 0.334,-0.41 0.382,-0.61 0.049,-0.203 0.176,-0.31 0.183,-0.565 0.021,-0.711 -0.444,-1.163 -0.945,-1.183 -0.5,-0.021 -0.886,0.42 -1.082,1.155 -0.197,0.735 0.758,1.203 1.462,1.203 z m 21.343,-6.079 c 0.134,0.103 0.706,-0.183 1.331,-1.087 0.624,-0.903 0.465,-2.727 0.182,-2.776 -0.282,-0.048 0.342,1.487 -0.472,2.528 -0.814,1.042 -1.176,1.231 -1.041,1.335 z m -3.273,9.756 c 0.176,-0.056 -0.145,-0.69 0.034,-0.904 0.18,-0.214 0.442,-0.728 0.283,-0.917 -0.158,-0.19 -1.831,0.262 -1.831,0.776 0,0.513 1.338,1.1 1.514,1.045" />
    </g>
    <g
       transform="matrix(1.1004051,0,0,-1.1004051,59.972634,20.948797)"
       id="g486">
      <path
         inkscape:connector-curvature="0"
         id="path488"
         style="fill:#231f20;fill-opacity:1;fill-rule:evenodd;stroke:none"
         d="m 0,0 1.652,-1.862 h 7.535 l 2.042,19.135 H 2.897 L 1.635,15.28 0,17.273 -1.635,15.256 -2.897,17.277 h -4.158 -4.156 l 2.024,-19.146 h 7.535 z M 0.017,1.162 2.055,-1.186 H 8.49 l 2.042,17.787 H 3.331 L 1.635,14.122 0,16.235 l -1.635,-2.12 -1.696,2.479 h -7.201 l 2.025,-17.78 h 6.452 z m -11.762,16.111 -2.797,-9.924 2.1,0.907 V -1.869 l -19.426,-0.004 2.801,10.922 -2.101,-1.673 v 9.901 z m -0.794,-0.679 -3.069,-10.635 2.486,1.276 v -8.421 h -17.87 l 2.99,11.856 -2.486,-1.921 v 7.845 z m -38.792,0.683 h 18.87 V -1.869 h -18.87 z m 0.68,-0.683 h 17.511 v -17.78 h -17.511 z m 48.83,-5.683 c -0.438,0.158 -0.81,1.217 -0.369,2.014 0.545,0.986 1.793,1.255 2.355,2.528 0.494,-0.442 0.828,-1.276 0.521,-2.145 -0.227,-0.648 -0.807,-1.624 -1.403,-1.618 -0.924,0.014 -0.624,0.383 0.027,0.452 0.383,0.038 0.821,0.7 0.969,1.179 0.159,0.511 0.218,1.014 0.028,1.59 -0.642,-1.169 -1.6,-1.348 -2.114,-2.2 -0.317,-0.527 -0.148,-1.348 0.248,-1.552 0.455,-0.231 0.349,-0.469 -0.262,-0.248 z m 2.173,0.659 c -0.01,0.038 -0.29,0.355 -0.266,0.441 0.024,0.097 0.386,0 0.417,-0.1 C 0.89,10.687 1.638,9.335 2.248,9.628 3.342,10.159 4.29,11.79 5.314,13.397 5.704,11.911 5.3,10.507 4.897,9.211 6.714,10.177 8.118,12.735 8.118,15.566 9.732,12.635 8.739,8.639 6.945,6.47 7.038,4.997 6.59,4.387 5.821,3.676 5.476,3.359 5.111,3.656 5.083,4.007 3.604,3.531 2.041,2.879 0.476,4.08 0.035,4.421 -0.769,5.197 -1.179,5.652 -1.862,6.418 -1.303,6.456 -0.879,5.928 -0.338,5.383 0.234,5.042 0.6,4.91 0.831,4.831 0.69,4.169 2.083,3.9 2.969,3.728 4.359,4.19 4.7,4.452 4.597,4.542 4.431,4.652 4.331,4.718 4.007,4.931 4.242,5.128 4.483,5.062 5.28,4.845 5.38,3.862 5.618,4.042 6.162,4.456 6.704,5.669 6.49,6.697 7.39,7.307 9.301,10.863 8.383,13.625 7.939,11.604 6.438,8.714 4.407,8.79 4.662,9.928 4.842,11.166 5.049,12.332 4.328,11.039 3.145,9.211 2.073,9.211 c -0.414,0 -1.39,0.583 -1.525,0.962 -0.141,0.4 -0.141,1.179 -0.196,1.397 z M -23.377,6.117 c 0.486,0.097 1.324,-0.058 1.313,-0.406 -0.01,-0.349 -0.748,-0.117 -0.958,-0.311 -0.211,-0.193 -0.769,-0.569 -1.145,-0.207 -0.376,0.363 0.303,0.828 0.79,0.924 z m -0.252,-1.844 c 0.386,0.203 1.055,0.151 1.059,-0.094 0.003,-0.244 -0.494,-0.382 -0.704,-0.575 -0.21,-0.193 -0.59,-0.593 -0.965,-0.231 -0.376,0.362 0.224,0.696 0.61,0.9 z m 9.725,-1.062 c -0.169,0.144 -0.39,0.751 -0.335,0.924 0.056,0.172 0.452,0.3 0.693,0.103 0.242,-0.196 0.335,-0.465 0.283,-0.714 -0.052,-0.248 -0.472,-0.458 -0.641,-0.313 z m 0.034,2.758 c 0.207,-0.075 0.638,-0.493 0.645,-0.672 0.007,-0.179 -0.096,-0.548 -0.39,-0.455 -0.293,0.093 -0.669,0.448 -0.696,0.707 -0.028,0.258 0.234,0.496 0.441,0.42 z m -3.442,-0.544 c 0.073,0.21 0.594,0.634 0.773,0.644 0.179,0.011 0.366,-0.406 0.276,-0.7 -0.09,-0.293 -0.407,-0.465 -0.669,-0.5 -0.262,-0.034 -0.452,0.345 -0.38,0.556 z m 1.773,-0.39 c 0,0.22 0.155,0.665 0.321,0.734 0.165,0.069 0.455,-0.069 0.562,-0.417 0.107,-0.348 0.114,-0.665 -0.121,-0.783 -0.234,-0.117 -0.762,0.245 -0.762,0.466 z m -3.976,-4.901 c 0.197,0.104 0.869,0.063 1.004,-0.048 0.134,-0.11 0.182,-0.379 -0.087,-0.534 -0.269,-0.155 -0.772,-0.2 -0.989,-0.052 -0.218,0.148 -0.125,0.531 0.072,0.634 z m -1.993,0.707 c 0.189,0.107 0.838,0.08 0.972,-0.024 0.135,-0.103 0.19,-0.358 -0.069,-0.517 -0.258,-0.159 -0.745,-0.214 -0.958,-0.076 -0.214,0.138 -0.135,0.51 0.055,0.617 z m -1.607,0.676 c 0.176,0.056 0.786,0.028 0.855,-0.048 0.069,-0.076 0.307,-0.286 0.059,-0.441 -0.249,-0.155 -0.831,-0.249 -1.032,-0.117 -0.199,0.13 -0.058,0.551 0.118,0.606 z M -7.031,1.045 c 0.144,0.103 0.5,0.055 0.689,-0.172 0.19,-0.228 0.131,-0.38 0.104,-0.601 C -6.266,0.052 -6.724,-0.048 -6.952,0.176 -7.18,0.4 -7.176,0.941 -7.031,1.045 Z m -14.684,11.814 c 0.145,0.104 0.224,0.235 0.576,0.138 0.351,-0.096 0.307,-0.265 0.279,-0.486 -0.028,-0.221 -0.462,-0.238 -0.745,-0.221 -0.282,0.018 -0.255,0.466 -0.11,0.569 z M -4.704,3.442 c 0.138,0.086 0.58,0.062 0.711,0.01 0.131,-0.052 0.2,-0.245 0.172,-0.466 -0.027,-0.22 -0.469,-0.462 -0.807,-0.262 -0.338,0.2 -0.214,0.631 -0.076,0.718 z m -0.082,-1.38 c 0.144,0.104 0.668,0.19 0.844,0.083 0.176,-0.107 0.09,-0.297 0.069,-0.507 -0.02,-0.21 -0.465,-0.372 -0.755,-0.273 -0.29,0.1 -0.303,0.594 -0.158,0.697 z m 0.975,2.956 c 0.145,0.103 0.687,0.172 0.814,0.051 0.128,-0.12 0.142,-0.314 0.121,-0.538 -0.021,-0.224 -0.61,-0.3 -0.9,-0.2 -0.29,0.1 -0.179,0.583 -0.035,0.687 z M 7.111,-0.603 c 0.145,0.103 0.486,0.251 0.617,0.2 C 7.859,-0.455 7.918,-0.659 7.89,-0.879 7.863,-1.1 7.221,-1.2 6.931,-1.1 6.642,-1 6.966,-0.707 7.111,-0.603 Z M 1.017,0.566 C 1.162,0.669 1.555,0.607 1.686,0.555 1.818,0.503 1.824,0.31 1.797,0.09 1.769,-0.131 1.445,-0.283 1.155,-0.183 0.866,-0.083 0.872,0.462 1.017,0.566 Z M -1.241,2.469 C -1.097,2.572 -0.683,2.552 -0.552,2.5 -0.421,2.449 -0.197,2.241 -0.224,2.021 -0.252,1.8 -0.71,1.786 -1,1.886 c -0.29,0.1 -0.386,0.48 -0.241,0.583 z m -1.062,1.583 c 0.144,0.103 0.589,-0.086 0.72,-0.138 0.131,-0.051 0.152,-0.245 0.049,-0.569 -0.104,-0.324 -0.859,-0.179 -1.169,0.124 -0.311,0.304 0.255,0.479 0.4,0.583 z M -3.09,2.376 C -2.945,2.479 -2.562,2.542 -2.431,2.49 -2.3,2.438 -2.241,2.172 -2.269,1.952 -2.297,1.731 -2.869,1.61 -3.159,1.71 -3.448,1.811 -3.235,2.273 -3.09,2.376 Z m -18.98,8.635 c 0.145,0.103 0.414,0.093 0.544,0.042 0.131,-0.052 0.149,-0.235 0.121,-0.456 -0.028,-0.22 -0.465,-0.372 -0.755,-0.272 -0.29,0.1 -0.055,0.583 0.09,0.686 z m 3.355,2.324 c 0.079,0.124 0.179,0.28 0.31,0.18 0.131,-0.1 0.28,-0.218 0.273,-0.38 -0.004,-0.075 -0.107,-0.179 -0.242,-0.248 -0.117,-0.059 -0.324,-0.093 -0.393,0.041 -0.041,0.087 -0.027,0.283 0.052,0.407 z m -0.659,0.635 c 0.083,0.058 0.159,0.117 0.256,0.069 0.096,-0.048 0.296,-0.183 0.296,-0.307 0,-0.059 -0.117,-0.214 -0.183,-0.214 -0.031,0 -0.237,-0.034 -0.296,0.031 -0.028,0.035 -0.155,0.362 -0.073,0.421 z M -8.159,4.935 c -0.083,0.141 -0.059,0.441 0.114,0.7 0.241,0.355 0.448,0.545 0.62,0.751 0.345,0.425 1.145,0.687 1.576,0.652 C -4.045,6.887 -1.624,6.193 -0.221,4.056 0.645,2.731 2.711,-0.8 5.111,-0.8 c 1.3,0 3.138,1.345 3.617,1.848 L 8.666,0.559 C 8.67,0.545 7.452,-0.517 5.731,-1.049 5.735,-1.186 4.525,-1.304 4.694,-1.028 3.483,-0.804 2.049,0.234 1.103,1.507 0.593,0.7 0.135,1.431 0.535,2.293 0.373,2.517 0.055,3.09 -0.248,3.335 -0.803,2.9 -0.828,3.79 -0.71,4.149 -0.779,4.314 -1.238,4.673 -1.459,4.956 -1.897,4.359 -2.345,4.89 -2.138,5.431 -2.773,6.131 -4.414,6.404 -4.428,6.397 -4.642,6.249 -4.89,6.18 -5.073,6.204 -5.255,6.228 -5.414,6.359 -5.476,6.583 -5.842,6.659 -6.766,6.787 -7.256,5.925 -7.669,5.19 -8.076,4.787 -8.159,4.935 Z m -13.118,9.914 c 0.096,0.069 0.286,0.162 0.407,0.1 0.12,-0.062 0.131,-0.172 0.131,-0.314 0,-0.069 -0.024,-0.327 -0.121,-0.362 -0.073,-0.027 -0.407,-0.02 -0.424,0.104 -0.004,0.045 -0.09,0.403 0.007,0.472 z m 0.796,-0.49 c 0.107,0.121 0.338,0.183 0.463,0.114 0.124,-0.069 0.224,-0.241 0.224,-0.407 0,-0.072 -0.193,-0.269 -0.28,-0.286 -0.069,-0.014 -0.334,0.066 -0.355,0.097 -0.083,0.124 -0.159,0.362 -0.052,0.482 z M -4.642,5.904 c 0.114,0.082 0.38,0.127 0.511,0.065 0.131,-0.062 0.338,-0.272 0.338,-0.445 0,-0.075 -0.311,-0.248 -0.421,-0.282 -0.079,-0.028 -0.397,0.034 -0.414,0.062 -0.082,0.131 -0.127,0.517 -0.014,0.6 z m -16.535,7.976 c 0.114,0.083 0.328,0.076 0.459,0.014 0.13,-0.062 0.224,-0.221 0.224,-0.393 0,-0.076 -0.166,-0.176 -0.287,-0.228 -0.096,-0.037 -0.348,-0.041 -0.383,0.007 -0.103,0.148 -0.127,0.517 -0.013,0.6 z M -6.604,6.201 c 0.124,0.089 0.483,0.265 0.638,0.189 0.155,-0.076 0.245,-0.21 0.328,-0.359 0.062,-0.106 0.027,-0.393 -0.586,-0.372 -0.08,0 -0.332,-0.031 -0.373,0.031 -0.124,0.169 -0.131,0.421 -0.007,0.511 z m -19.746,6.672 c 0.128,0.093 0.438,0.217 0.597,0.138 0.158,-0.079 0.224,-0.214 0.22,-0.41 0,-0.093 -0.2,-0.238 -0.355,-0.311 -0.124,-0.058 -0.386,-0.062 -0.438,0.011 -0.134,0.179 -0.152,0.479 -0.024,0.572 z M 2.411,-0.603 c 0.182,0.079 0.424,0.251 0.648,0.12 C 3.283,-0.614 3.3,-0.624 3.3,-0.821 3.3,-0.91 3.256,-1.186 3.121,-1.186 H 2.462 c -0.158,0 -0.234,0.503 -0.051,0.583 z m -23.857,12.355 c 0.127,0.094 0.438,0.218 0.597,0.139 0.158,-0.08 0.223,-0.215 0.22,-0.411 0,-0.093 -0.2,-0.238 -0.355,-0.31 -0.124,-0.059 -0.386,-0.062 -0.438,0.01 -0.134,0.179 -0.152,0.479 -0.024,0.572 z M -9.045,6.235 c 0.158,0.103 0.893,0.069 1.024,0.017 C -7.89,6.201 -7.966,5.986 -8.076,5.852 -8.187,5.717 -8.48,5.414 -8.749,5.507 -9.018,5.6 -9.204,6.131 -9.045,6.235 Z M -6.78,5.183 c 0.159,0.104 0.466,0.224 0.597,0.173 C -6.052,5.304 -6.076,5.069 -6.104,4.849 -6.131,4.628 -6.559,4.493 -6.828,4.586 -7.097,4.68 -6.938,5.08 -6.78,5.183 Z M -5.659,5.09 c 0.152,0.09 0.476,0.283 0.607,0.231 0.131,-0.052 0.376,-0.369 0.348,-0.59 C -4.731,4.511 -5.28,4.321 -5.583,4.428 -5.886,4.535 -5.811,5 -5.659,5.09 Z m -17.077,6.749 c 0.159,0.103 0.393,0.21 0.524,0.158 0.131,-0.052 0.148,-0.296 0.121,-0.517 -0.028,-0.221 -0.414,-0.407 -0.683,-0.314 -0.269,0.093 -0.121,0.569 0.038,0.673 z M -5.873,3.914 C -5.728,4.018 -5.283,4 -5.152,3.948 -5.021,3.897 -5.08,3.566 -5.186,3.421 -5.293,3.276 -5.704,3.024 -5.993,3.124 c -0.29,0.1 -0.024,0.687 0.12,0.79 z m -17.408,6.883 c 0.145,0.104 0.431,0.245 0.576,0.18 0.145,-0.066 0.179,-0.266 0.152,-0.487 -0.028,-0.22 -0.455,-0.51 -0.745,-0.41 -0.29,0.1 -0.128,0.614 0.017,0.717 z m 16.06,-6.49 c 0.145,0.104 0.555,0.121 0.814,0.038 C -6.149,4.262 -6.266,3.904 -6.514,3.7 -6.762,3.497 -6.976,3.473 -7.311,3.552 c -0.334,0.079 -0.055,0.652 0.09,0.755 z m -19.37,6.828 c 0.145,0.104 0.213,0.38 0.472,0.297 0.259,-0.083 0.245,-0.39 0.214,-0.656 -0.031,-0.265 -0.348,-0.541 -0.786,-0.399 -0.438,0.141 -0.045,0.655 0.1,0.758 z M -6.428,2.4 c 0.145,0.104 0.317,0.186 0.576,0.104 0.259,-0.083 0.276,-0.535 0.245,-0.8 C -5.638,1.438 -5.99,1.49 -6.286,1.604 -6.583,1.717 -6.573,2.297 -6.428,2.4 Z m -19.439,7.777 c 0.145,0.103 0.266,0.444 0.524,0.362 0.259,-0.083 0.224,-0.442 0.193,-0.707 -0.031,-0.266 -0.334,-0.511 -0.772,-0.369 -0.438,0.141 -0.09,0.61 0.055,0.714 z m 6.493,-6.411 c 0.145,0.103 0.528,0.31 0.597,0.234 0.069,-0.076 0.038,-0.389 0.007,-0.655 -0.031,-0.265 -0.221,-0.393 -0.659,-0.252 -0.438,0.142 -0.09,0.569 0.055,0.673 z M 5.207,6.428 C 4.914,6.504 4.511,5.786 4.666,5.69 4.821,5.597 5.011,5.673 5.245,5.486 5.48,5.3 5.814,4.869 5.776,5.431 5.738,5.993 5.5,6.352 5.207,6.428 Z M 3,7.338 C 2.731,7.318 2.049,7.283 2.028,7.093 2.007,6.904 2.5,6.338 3.159,6.497 3.818,6.656 2.886,6.69 3.004,6.969 3.121,7.249 3.269,7.359 3,7.338 Z M -7.576,2.741 C -7.914,2.293 -7.835,2.004 -7.68,1.907 c 0.155,-0.093 0.576,-0.162 0.721,0.135 0.145,0.296 0.286,0.834 0.183,0.834 -0.104,0 -0.462,0.314 -0.8,-0.135 z m -20.012,6.222 c -0.355,-0.452 -0.583,-0.5 -0.435,-0.593 0.149,-0.094 0.38,-0.018 0.649,0.055 0.269,0.072 0.641,0.041 0.697,0.589 0.055,0.549 -0.556,0.4 -0.911,-0.051 z m 11.263,-5.366 c -0.155,0.21 -0.528,0.348 -0.7,0.22 -0.173,-0.127 -0.066,-0.427 -0.035,-0.724 0.031,-0.296 0.218,-0.576 0.666,-0.389 0.448,0.186 0.224,0.683 0.069,0.893 z m 1.528,-2.093 c -0.266,0.155 -0.583,0.407 -0.652,0.241 -0.069,-0.166 0.048,-0.293 0.059,-0.607 0.01,-0.314 0.206,-0.772 0.644,-0.493 0.438,0.279 0.214,0.703 -0.051,0.859 z m -1.132,-0.673 c -0.172,0.355 -0.596,0.697 -0.717,0.569 -0.121,-0.128 0.021,-0.424 0.038,-0.707 0.017,-0.283 -0.117,-0.969 0.41,-0.859 0.528,0.111 0.442,0.642 0.269,0.997 z m -1.483,0.831 c -0.199,0.262 -0.606,0.683 -0.727,0.555 -0.121,-0.127 0.041,-0.396 0.059,-0.679 0.017,-0.283 -0.142,-0.852 0.386,-0.738 0.527,0.114 0.483,0.6 0.282,0.862 z m -3.093,2.655 c 0.317,0.094 0.89,0.197 0.914,0.018 0.024,-0.18 -0.328,-0.217 -0.51,-0.435 -0.183,-0.217 -0.521,-0.872 -0.876,-0.472 -0.355,0.4 0.155,0.796 0.472,0.889 z m -0.714,0.908 c 0.328,0.048 0.907,0.072 0.907,-0.111 0,-0.183 -0.251,-0.19 -0.462,-0.383 -0.21,-0.193 -0.61,-0.552 -0.976,-0.227 -0.365,0.324 0.204,0.672 0.531,0.721 z m 2.049,5.062 c 0.217,0.01 0.814,-0.659 0.738,-0.769 -0.076,-0.111 -0.362,0.321 -0.555,0.324 -0.193,0.004 -0.452,-0.034 -0.466,0.034 -0.014,0.07 0.066,0.4 0.283,0.411 z M -19.625,9.69 c 0.282,0.056 1.082,-0.358 1.082,-0.541 0,-0.183 -0.496,0.11 -0.72,0.031 -0.224,-0.079 -0.521,-0.204 -0.59,-0.076 -0.069,0.128 -0.055,0.531 0.228,0.586 z m -5.404,-3.076 c 0.372,0 1.162,-0.024 1.162,-0.207 0,-0.182 -0.631,-0.244 -0.842,-0.438 -0.21,-0.193 -0.406,-0.555 -0.862,-0.148 -0.455,0.407 0.169,0.793 0.542,0.793 z m 5.355,1.618 c -0.02,-0.259 -0.603,-1.001 0.514,-1.4 0.145,-0.052 0.135,0.53 0.4,0.52 0.421,-0.02 0.817,0.287 1.014,0.486 -0.155,0.076 -0.541,0.035 -0.865,0.118 -0.37,0.093 -0.808,0.31 -1.063,0.276 z m -7.493,-3.514 c -0.011,0.158 0,0.451 -0.104,0.617 -0.352,0.559 -0.928,1.155 -1.089,0.879 -0.462,-0.776 0.527,-0.979 0.393,-1.045 -0.249,-0.12 -0.156,-0.551 -0.138,-1.065 0.014,-0.373 -0.152,-1.049 -0.076,-1.142 0.162,-0.034 0.91,0.694 1.538,1.066 0.603,0.362 1.207,0.631 1.097,0.834 -0.507,0.942 -1.463,-0.272 -1.621,-0.144 z m 11.49,7.3 c -0.783,0.238 -0.379,0.507 0.145,0.352 0.428,-0.124 1.348,-0.028 1.803,0.11 l -0.148,-0.517 c -0.562,-0.093 -1.341,-0.086 -1.8,0.055 z m 13.06,1.507 c 0.682,-0.452 0.396,-0.514 -0.238,-0.297 -0.9,0.307 -3.431,0.514 -4.407,0.494 -1.035,-0.024 -2.308,-0.307 -2.842,-0.711 l -0.069,0.552 c 0.39,0.455 2.176,0.514 3.376,0.565 1.328,0.059 3.628,-0.234 4.18,-0.603 z m -4.252,-1.369 c -0.728,0.352 -0.176,0.665 0.51,0.176 0.755,-0.542 1.61,-1.442 2.097,-2.287 C -3.873,9.376 -3.466,7.997 -3.448,7.58 -3.41,6.687 -3.717,6.328 -3.742,7.159 -3.79,8.645 -3.921,8.628 -4.518,9.721 c -0.593,1.083 -1.776,2.156 -2.351,2.435 z m -8.57,-8.508 c 0.173,0.814 0.335,0.566 0.366,-0.11 0.048,-0.955 1.014,-1.397 1.489,-2.259 0.307,-0.558 0.407,-1.107 0.459,-1.703 v -0.424 c -0.566,0.193 -0.276,1 -1.004,1.917 -0.758,0.959 -1.448,1.924 -1.31,2.579 z m -11.939,-4.834 h 0.438 c 0.107,0 0.29,0.5 0.532,0.662 0.206,0.138 0.492,0.403 0.399,0.469 -0.213,0.158 -0.262,0.052 -0.624,-0.083 -0.617,-0.231 -0.683,-1.048 -0.745,-1.048 z m 0.397,3.372 c 0.003,-0.01 0.296,0.435 0.576,0.535 1.448,0.534 6.345,-0.711 6.418,-0.814 0.034,-0.052 0.169,-0.41 -0.152,-0.328 -1.593,0.421 -4.976,1.073 -5.918,0.78 -0.114,-0.035 -0.717,-0.58 -0.807,-0.583 -0.603,-0.035 -1.32,0.103 -1.962,-0.7 -0.507,-0.631 0.072,-0.99 -0.276,-0.959 -0.424,0.035 -0.403,0.655 -0.245,1.007 0.155,0.352 0.332,0.504 0.711,0.793 0.434,0.335 1.644,0.204 1.655,0.269 z m -1.697,-3.372 h 0.483 c 0.052,0 -0.41,0.9 -0.01,1.183 0.462,0.331 1.624,0.413 1.531,0.731 -0.038,0.131 -0.338,0.069 -0.718,-0.035 -0.375,-0.103 -0.824,-0.138 -1.179,-0.455 -0.569,-0.514 -0.041,-1.424 -0.107,-1.424 z m 0.342,10.528 c 0.362,0.455 0.631,0.328 0.727,0.628 0.404,1.238 -0.017,3.607 2.252,4.631 0.211,1.604 1.556,2.072 2.876,0.948 0.5,0.118 1.083,0.169 1.514,-0.041 1.711,-0.828 3.111,-1.428 4.231,-2.883 0.228,-0.3 0.173,-1.186 0.245,-1.266 0.511,-0.583 0.797,-1.424 0.766,-2.124 -0.017,-0.362 -0.269,-0.779 -0.538,-1.003 -0.266,-0.224 -0.666,-0.269 -0.749,-0.566 -0.23,-0.838 -0.803,-1.931 -1.406,-1.959 -0.707,-0.031 -0.914,0.162 -1.387,0.431 -0.303,0.176 -0.569,0.283 -0.934,0.214 -0.197,-0.034 -0.3,0.273 -0.114,0.314 0.379,0.086 0.803,-0.052 1.241,-0.221 0.338,-0.131 0.597,-0.493 1.173,-0.386 0.662,0.124 0.872,0.986 0.993,1.59 0.059,0.286 0.248,0.427 0.6,0.617 -0.1,0.252 -0.403,1.231 -0.014,1.486 0.156,-0.248 0.459,-0.482 0.735,-0.637 0.11,0.193 0.114,0.506 0.055,0.713 -0.141,0.494 -0.417,0.956 -0.759,1.418 -0.244,0.327 0,0.879 -0.214,1.183 -0.944,1.317 -2.544,2.099 -3.948,2.786 -0.569,0.279 -0.793,0.158 -1.259,0.038 0.411,-0.521 1.031,-0.931 0.773,-1.149 -0.29,-0.245 -1.587,2.266 -2.832,1.449 -0.851,-0.563 -0.534,-1.925 0.173,-2.921 0.1,-0.145 0.024,-0.811 -0.293,-0.411 -0.259,0.331 -0.714,0.956 -0.807,1.804 -1.214,-0.348 -1.714,-1.8 -2.042,-4.211 -0.041,-0.307 -0.589,-0.448 -1.269,-1.307 z m -11.315,2.286 c -0.469,0.928 -1.665,2.573 -0.955,4.021 1.548,-0.91 2.155,-1.286 2.162,-3.055 0,-0.81 0.476,-0.352 0.535,0.083 0.227,0.062 0.951,0.044 1.148,0.013 -0.038,-0.362 0.245,-0.413 0.373,0.059 0.313,1.173 1.531,1.731 1.455,3.1 0.872,-0.714 0.983,-1.748 0.707,-2.569 -0.235,-0.707 -0.832,-1.197 -0.88,-2.11 0.221,-0.193 0.338,-0.614 0.228,-0.811 -0.314,-0.555 -0.266,-2.196 -0.511,-2.834 -0.082,-0.214 -0.424,-0.432 -0.424,-0.563 -0.027,-1.151 0.173,-4.265 -1.986,-6.003 l 0.331,-0.228 c 0.835,0.445 1.424,1.473 1.717,2.593 0.394,1.483 0.331,3.138 0.318,3.549 -0.004,0.169 0.465,0.379 0.476,0.689 0.027,0.832 0.186,2.125 0.389,2.752 0.069,0.207 -0.1,0.911 -0.093,1.18 0.662,1.3 2.052,3.531 -0.496,4.952 -0.156,-0.597 -0.273,-1.393 -0.656,-1.9 -0.334,-0.449 -0.61,-0.707 -0.876,-1.321 -0.362,0.031 -0.989,-0.021 -1.351,-0.2 -0.276,1.359 -0.131,1.8 -2.77,3.235 -0.92,-1.842 -0.162,-3.104 0.693,-4.584 0.242,-0.413 0.614,-0.344 0.466,-0.048 z m 21.153,-0.093 c 0.149,-0.058 0.324,-0.358 -0.121,-0.503 -0.206,-0.069 -0.044,-0.373 0.045,-0.338 0.059,0.024 0.593,0.248 0.676,0.538 0.086,0.289 -0.541,0.579 -0.527,0.693 0.076,0.658 -0.331,0.483 -0.825,0.331 0,0 -0.4,0.228 -0.455,-0.062 -0.021,-0.124 0.569,-0.704 0.569,-0.704 0.197,-0.055 0.466,0.118 0.638,0.045 z M -35.375,9.918 c 0.18,0 0.152,0.151 0.224,0.31 0.056,0.121 0.269,0.235 0.269,0.341 0,0.077 -0.262,-0.051 -0.248,0.025 -0.29,0.272 -0.4,0.327 -0.527,0.241 -0.128,-0.086 -0.325,-0.317 -0.428,-0.638 -0.041,-0.128 -0.052,-0.427 0,-0.427 0.083,0 0.179,0.148 0.296,0.182 0.111,0.035 0.294,-0.034 0.414,-0.034 z m -3.269,0.159 c 0.049,0 0.245,-0.197 0.269,-0.256 0.097,-0.255 0.19,-0.21 0.235,0.066 0.079,0.927 -0.504,1.234 -1.1,0.838 0.027,-0.39 0.234,-0.631 0.596,-0.648 z m 1.621,-2.446 c 0.341,0.008 0.324,0.231 0.5,0.508 0.09,0.141 0.214,-0.787 0.472,-0.639 0.207,0.121 0.059,0.466 -0.086,0.742 -0.189,0.362 -0.276,0.865 -0.276,0.873 -0.038,0.185 -1.234,0.4 -1.389,-0.08 0,0 -0.052,-0.452 -0.149,-0.6 -0.241,-0.355 -0.345,-0.876 -0.241,-0.914 0.348,-0.138 0.483,0.742 0.59,0.586 0.172,-0.258 0.117,-0.486 0.579,-0.476 z m -8.049,-7.476 c 0.466,-0.062 0.679,0.473 0.741,0.786 -0.251,0.249 -0.723,0.59 -1.32,0.193 0.027,-0.389 0.113,-0.917 0.579,-0.979 z m 1.766,4.2 c -0.104,-0.044 -0.125,-0.158 -0.117,-0.272 0.006,-0.114 0.048,-0.245 0.048,-0.331 -0.362,-0.093 -0.628,-0.78 -0.6,-1.076 0.041,-0.438 0.752,-1.155 0.9,-1.49 0.055,-0.12 -0.024,-0.403 -0.142,-0.565 -0.179,-0.245 -0.424,-0.424 -0.337,-0.5 0.337,-0.304 1.12,0.734 1.124,1.045 0.003,0.403 -1.042,1.389 -1.059,1.517 -0.045,0.328 0.359,0.814 0.414,0.838 0.162,0.079 0.469,-0.2 0.603,-0.069 0.142,0.134 0.593,0.535 0.438,0.655 -0.286,0.217 -1.052,0.338 -1.272,0.248 z m -3.231,0.066 c 0.224,-0.097 0.289,-0.697 0.282,-1.059 -0.069,-0.01 -0.131,0.097 -0.227,0.111 -0.421,0.062 -1.076,0.258 -1.245,0.779 0.269,0.266 0.965,0.266 1.19,0.169 z m -3.394,-5.607 c 0.293,2.121 -0.441,5.4 1.3,6.493 -0.241,0.883 -1.034,5.08 0.521,6.214 1.531,-1.093 1.997,-2.817 2.248,-4.589 0.083,-0.576 0.49,-0.356 0.49,-0.049 0,0.155 -0.19,0.424 -0.086,0.607 0.227,0.062 0.969,0.138 1.165,0.107 -0.041,-0.366 -0.117,-0.638 -0.144,-0.848 -0.021,-0.18 0.424,-0.259 0.479,0.058 0.245,1.432 0.614,4.301 1.6,4.839 1.883,-1.139 1.749,-3.925 1.311,-5.997 0.496,-0.324 0.851,-0.576 1.017,-0.976 0.341,-0.824 0.355,-2.063 0.669,-2.618 0.993,-1.741 2.9,-2.407 4.404,-3.241 h 1.421 c -2.556,0.952 -4.856,2.2 -5.518,3.521 -0.28,0.558 -0.369,1.6 -0.49,2.293 -0.11,0.648 -0.552,0.945 -0.965,1.307 0.568,2.424 0.034,5.166 -1.783,6.293 -1.135,-0.444 -1.707,-2.727 -1.89,-4.114 -0.345,-0.062 -1.117,-0.058 -1.386,-0.072 -0.366,1.155 -0.745,2.965 -2.597,4.124 -1.911,-1.196 -1.307,-4.679 -1.055,-6.645 -1.183,-0.869 -1.056,-3.71 -1.1,-6.707 z m 8.049,11.132 c -0.141,-0.57 -0.428,-1.283 0.317,-2.225 -0.107,-0.124 -0.455,-0.014 -0.679,0.131 0.11,-0.603 0.303,-0.941 0.562,-1.224 -0.11,-0.169 -1.417,0.193 -1.486,0.452 -0.135,1.383 0.797,2.845 1.286,2.866 z M -48.279,9.79 c -0.124,-0.082 0.148,-1.393 -0.179,-1.876 0.565,-0.262 0.645,-0.531 0.776,-0.707 -0.335,-0.117 -0.29,-0.076 -0.963,-0.193 0.731,-1.031 2.059,-0.593 1.083,0.797 0.387,-0.114 0.662,-0.631 0.68,-0.487 0.137,1.09 -0.907,2.446 -1.397,2.466" />
    </g>
  </g>
</svg>
